<svg xmlns="http://www.w3.org/2000/svg" xmlns:xlink="http://www.w3.org/1999/xlink" viewBox="0 0 386.4 386"><defs><style>.cls-1{fill:#004936;}.cls-2{fill:url(#Ikke-navngivet_forløb_80);}.cls-3{fill:url(#Ikke-navngivet_forløb_82);}</style><radialGradient id="Ikke-navngivet_forløb_80" cx="232.75" cy="151.87" r="307.58" gradientTransform="translate(519.46 129.39) rotate(139.54) scale(1 1.11)" gradientUnits="userSpaceOnUse"><stop offset="0.47" stop-color="#004935"/><stop offset="1" stop-opacity="0.8"/></radialGradient><radialGradient id="Ikke-navngivet_forløb_82" cx="245.91" cy="128.52" r="79.4" gradientTransform="matrix(0.18, 0.98, -0.83, 0.15, 309.27, -133.2)" gradientUnits="userSpaceOnUse"><stop offset="0" stop-color="#fff" stop-opacity="0.8"/><stop offset="0.05" stop-color="#eaf0ee" stop-opacity="0.82"/><stop offset="0.24" stop-color="#a4beb7" stop-opacity="0.87"/><stop offset="0.42" stop-color="#699488" stop-opacity="0.92"/><stop offset="0.59" stop-color="#3b7364" stop-opacity="0.95"/><stop offset="0.75" stop-color="#1b5c4a" stop-opacity="0.98"/><stop offset="0.89" stop-color="#074e3a" stop-opacity="0.99"/><stop offset="1" stop-color="#004935"/></radialGradient></defs><g id="Lag_2" data-name="Lag 2"><g id="Lag_1-2" data-name="Lag 1"><path class="cls-1" d="M386.4,193a194.36,194.36,0,0,1-2,27.68,190.32,190.32,0,0,1-6.6,29.36A193.09,193.09,0,0,1,193.4,386C86.81,386,.4,299.59.4,193a192.84,192.84,0,0,1,90-163.21A192.1,192.1,0,0,1,193.4,0C300,0,386.4,86.41,386.4,193Z"/><path class="cls-2" d="M386,193a194.36,194.36,0,0,1-2,27.68,190.32,190.32,0,0,1-6.6,29.36A193.09,193.09,0,0,1,193,386C86.41,386,0,299.59,0,193A192.84,192.84,0,0,1,90,29.79,192.1,192.1,0,0,1,193,0C299.59,0,386,86.41,386,193Z"/><ellipse class="cls-3" cx="246.27" cy="128.24" rx="69.14" ry="82.05" transform="matrix(0.55, -0.83, 0.83, 0.55, 3.42, 262.86)"/></g></g></svg>
