<svg xmlns="http://www.w3.org/2000/svg" viewBox="0 0 803.78 827.85"><defs><style>.cls-1{fill:#ef6d50;}.cls-2{fill:#face53;}.cls-3{fill:#161a1e;}.cls-4{fill:#f4f6f9;}.cls-5{fill:#e7e8ec;}.cls-6{fill:#543a1f;}</style></defs><g id="Lag_2" data-name="Lag 2"><g id="Lag_1-2" data-name="Lag 1"><rect class="cls-1" width="803.78" height="827.85"/><path class="cls-2" d="M263.26,827.85a99.6,99.6,0,0,1-4.91-19.75,67.22,67.22,0,0,1-.89-12.82c.52-10.48,3.07-20.32,9.7-28.74a42.94,42.94,0,0,1,9.72-9.11c4.1-2.76,8.22-5.49,12.34-8.23a45.11,45.11,0,0,0,18-22.36,39,39,0,0,0,2-19.12c-.82-5.92-1.87-11.82-2.45-17.76a31.32,31.32,0,0,1,3.84-18.76,2.87,2.87,0,0,0,.49-1.35c.75-.29,1-1,1.42-1.6,1.41-1.77,2.59-3.78,4.24-5.27a71.12,71.12,0,0,1,11.77-8.91,116.7,116.7,0,0,1,14.18-6.9,1.59,1.59,0,0,1,.39.27,89.43,89.43,0,0,0,20.19,19.22,1.7,1.7,0,0,1,.65,2.11c-.68,3.16-1.33,6.34-2,9.51q-6.33,30.21-12.69,60.42a3.52,3.52,0,0,0,1,3.67c3.36,3.3,6.62,6.69,9.92,10q15.54,15.78,31.09,31.55c3,3,6.1,6,9.28,9.15l7.81-7.64q21.93-21.42,43.88-42.84a3.72,3.72,0,0,0,1.25-4c-4.71-20.2-9.3-40.43-13.93-60.65-.73-3.15-1.37-6.34-2.29-9.44-.67-2.23-.74-2.71,1-4a86.67,86.67,0,0,0,15.31-14.89l3.51-4.35a72.66,72.66,0,0,1,17.19,9.43c5.91,4.57,10.49,10.1,12.93,17.25a2.75,2.75,0,0,0,.61,1.29,52.05,52.05,0,0,1,.9,14.73c-.21,4-.69,7.89-1.19,11.81-1.25,9.74-.72,19.27,3.7,28.21a47.4,47.4,0,0,0,16.22,18.7c4.52,3,9.32,5.57,14.06,8.21a57.23,57.23,0,0,1,12.05,8.58,38.73,38.73,0,0,1,9.28,14.1,52.48,52.48,0,0,1,3.49,19c0,10.85-2.36,21.18-5.93,31.32Z"/><path class="cls-3" d="M342.67,647.17a116.7,116.7,0,0,0-14.18,6.9A71.12,71.12,0,0,0,316.72,663c-1.65,1.49-2.83,3.5-4.24,5.27-.44.56-.67,1.31-1.42,1.6a19.38,19.38,0,0,0-6.88-6l-9.51-4.91a78.31,78.31,0,0,1-11-6.65,23.46,23.46,0,0,0-8.21-3.54c-3.13-.84-6.28-1.6-9.41-2.45a17.32,17.32,0,0,1-10.56-8,58.26,58.26,0,0,1-4.28-8.45A43.34,43.34,0,0,0,239,613c-2.21-1.9-4.32-3.93-6.36-6a24.24,24.24,0,0,1-5.89-8.52,38.93,38.93,0,0,0,9.59-4.57c7.51-5.41,10.36-12.88,9.27-21.83-1-8.45-5.86-14.14-13.68-17.38a70.09,70.09,0,0,0-8.12-2.43c-4.28-1.19-8.66-2-12.86-3.47a44.31,44.31,0,0,1,.22-10.1l.48-.06c6.2-.56,11.78.54,16.09,5.54,1.17,1.36,1.91,1.3,3.39.25q5-3.52,9.84-7.14c1.75-1.29,1.82-2,.51-3.84a19.61,19.61,0,0,0-7.24-6A43.33,43.33,0,0,0,218.69,523c-3.15-.33-6.31-.17-9.46-.3-.67-2.29-2.06-4.21-3.2-6.26a65.4,65.4,0,0,1-3.75-7.37,15.87,15.87,0,0,1-.16-11.41,46.66,46.66,0,0,1,2.8-6.2c1.2-2.3,2.35-4.63,3.56-6.93a5.41,5.41,0,0,0,.23-4.88,64.88,64.88,0,0,1-2.54-7.86,17,17,0,0,1,.68-11.2,6.62,6.62,0,0,0,.52-3.07,17.28,17.28,0,0,1,.68-5.53,207.36,207.36,0,0,1,8.37-25.13c1.83-4.42,3.31-9,4.9-13.49,2.36-6.68,5.74-12.7,11.08-17.49a5,5,0,0,0,.84-.88,60.85,60.85,0,0,1,9.89-10.7,13.64,13.64,0,0,0,3.6-5.11c1.26-3.17,2.55-6.32,3.81-9.49A27.35,27.35,0,0,1,258,359c6.1-5.38,12.55-10.31,19.12-15.07,2.72-2,5.93-3,9.12-3.94,1.7-.53,3.41-1.06,5.15-1.45C297,337.31,302,334.5,307,331.85a11,11,0,0,0,3.62-3.55c1.38-1.91,2.66-3.88,3.95-5.85s2.51-3.78,3.93-5.56a13.38,13.38,0,0,1,10.58-5.12,47.24,47.24,0,0,1,8.74.63,30.8,30.8,0,0,0,18.74-2.52c2.4-1.17,4.91-2.14,7.38-3.15a36,36,0,0,1,8.87-2.53,57.68,57.68,0,0,0,10.4-2.48,54.84,54.84,0,0,1,23.53-2.33c9.76,1.06,19.52,2.13,29.15,4,2.95.58,5.85,1.37,8.8,1.92a22.36,22.36,0,0,1,11.08,5.75q3.15,2.86,6.32,5.71a20.12,20.12,0,0,0,11.74,5.37c1.71.15,3.4.21,5.1.3,2.6.15,5.19.26,7.78.46A17,17,0,0,1,499,329.58c1.73,2.15,3.43,4.33,5,6.61A35.69,35.69,0,0,0,516,347.3a94.36,94.36,0,0,1,11.75,7.35,45.72,45.72,0,0,0,7.83,5.45c3.64,1.81,6.26,4.79,9,7.62a174.87,174.87,0,0,1,11.7,13.37,59.47,59.47,0,0,0,8.69,9.17,51.54,51.54,0,0,1,16.33,24,219.62,219.62,0,0,0,10.47,24.88c1.11,2.34,2,4.79,3,7.17a22.76,22.76,0,0,1,.9,15.7c-.43,1.56-.73,3.16-1.19,4.71a36.21,36.21,0,0,0-.84,15.64A137.91,137.91,0,0,1,595,503.49a28.32,28.32,0,0,1-2.21,9.67c-1.28,3.41-3,6.65-3.95,10.2-.75.27-1.48.57-2.26.77a30.85,30.85,0,0,0-9.54,4.15,22.8,22.8,0,0,0-9.25,11.27c-3.55,9.55.16,19.94,9.16,25.84.75.49,1.48,1,2.22,1.49a10.49,10.49,0,0,1-1.06,2.88c-.74,1.91-1.83,3.68-2.28,5.7h0c-.29.08-.35.3-.34.56-2.71,2.21-5.68,4-8.53,6-3.57,2.49-3.68,3.43-.86,6.86A35.33,35.33,0,0,0,572,594a41.44,41.44,0,0,1-3.49,8.24c-1.71,3.14-2.6,6.62-3.67,10a67,67,0,0,1-3.3,8.87,15.45,15.45,0,0,1-8.61,8.12c-1.67.64-3.34,1.26-5,1.84-1.22.42-2.46.82-3.71,1.15a23.5,23.5,0,0,0-14.15,10.39c-1.87,2.93-3.9,5.77-5.93,8.6a29.47,29.47,0,0,1-6.49,6.51c-5.22,3.86-10.49,7.62-15.9,11.2-4.24,2.82-8.68,4.67-13.87,4.28a2.75,2.75,0,0,1-.61-1.29c-2.44-7.15-7-12.68-12.93-17.25a72.66,72.66,0,0,0-17.19-9.43c.6-1,1.15-2,1.79-2.88a114.4,114.4,0,0,0,13.87-28.24,135.63,135.63,0,0,0,7.14-37,141.07,141.07,0,0,0-1.36-30.72c1.84-3,3.66-6.1,5.52-9.14,2.16-3.52,4.36-7,6.51-10.53.55-.88,1.25-1.82.1-2.79a1.38,1.38,0,0,0-1.07-.45c-5.48,0-11-.18-16.43.12h-.06a13.11,13.11,0,0,0-.32-1.41,133.77,133.77,0,0,0-8.55-19.57,100.16,100.16,0,0,0-19.07-25,75.35,75.35,0,0,0-21-14.22,58,58,0,0,0-18.92-5.07,62.35,62.35,0,0,0-25.88,3c-14.37,5-25.72,14.21-35.12,25.94a108.37,108.37,0,0,0-16.39,28.84c-.93,2.39-2.28,4.68-2.25,7.37-1.66.43-3.37,0-5,.26s-2,1.06-1.41,2.54c.25.58.64,1.11.95,1.67a38.41,38.41,0,0,1,2.62,4.58,22.38,22.38,0,0,0-1.31,5.15,143.13,143.13,0,0,0-2.75,20.12c-.2,3.3-.36,6.6-.39,9.91a2.22,2.22,0,0,1-.43,1.6c-.19-.44-.4-.88-.56-1.34q-6.07-17.16-12.13-34.34c-.81-2.29-1.61-4.58-2.43-6.86-.66-1.84-1.86-3.07-3.92-3.07-6.65,0-13.3,0-19.95,0a2.76,2.76,0,0,0-2.81,1.91c-.23.6-.45,1.21-.67,1.82q-9.67,27.22-19.35,54.45c-1.58,4.42-3.17,8.84-4.67,13.28-.94,2.79-.17,3.81,2.66,3.82h13.39c2.66,0,2.86-.15,3.79-2.79,1.1-3.13,2.18-6.27,3.28-9.4.83-2.38.84-2.41,3.23-2.41q9.48,0,19,0c2.25,0,2.31.06,3.07,2.27,1.13,3.29,2.27,6.58,3.35,9.88a4.31,4.31,0,0,0,1.52,2.41c.75.71,1.68.47,2.55.47,4.05,0,8.11,0,12.16,0,2.22,0,2.23,0,2.78,2.17.08.32.12.64.2,1a127.37,127.37,0,0,0,15,36.48C339,641.84,341.15,644.29,342.67,647.17ZM499,561.51q0,17.15,0,34.31c0,2.68.5,3.21,3.07,3.21q26.77,0,53.57,0c2.34,0,2.82-.51,2.85-2.89,0-3.24,0-6.49,0-9.73,0-4,0-4-3.88-4H524.71c-2.48,0-2.59-.11-2.63-2.62s0-4.86,0-7.3c0-2.73.32-3,3.11-3,5.36,0,10.71,0,16.07,0,2.91,0,3.07-.17,3.08-3,0-3.41,0-6.81,0-10.22,0-2.81-.27-3.08-3-3.09-5.27,0-10.55,0-15.82,0-2.89,0-3.35-.48-3.4-3.41,0-1.7,0-3.4,0-5.11,0-4,.15-4.13,4.08-4.13q14,0,28,0c2.69,0,3.32-.65,3.37-3.26.05-3.25.06-6.49.1-9.74,0-3.48-.14-3.68-3.67-3.68H501.61c-2.08.09-2.49.5-2.57,2.66,0,.57,0,1.14,0,1.7Z"/><path class="cls-4" d="M211,548.78c4.2,1.46,8.58,2.28,12.86,3.47a70.09,70.09,0,0,1,8.12,2.43c7.82,3.24,12.66,8.93,13.68,17.38,1.09,9-1.76,16.42-9.27,21.83a38.93,38.93,0,0,1-9.59,4.57A59.19,59.19,0,0,1,209.61,600a50,50,0,0,1-20.54-5.4,23.22,23.22,0,0,1-7.09-5.47,14.72,14.72,0,0,1-1.81-2.57c-.76-1.41-.63-2.29.63-3.19,3.56-2.55,7.16-5.05,10.83-7.44,1.57-1,2.57-.72,3.83.7.16.18.31.37.46.57,6.21,8.43,16.76,8.2,23.81,5.93a1.61,1.61,0,0,0,.41-.25c2.14-.59,3.55-1.89,3.67-4.18s-1.36-3.5-3.15-4.45a14.57,14.57,0,0,0-3.88-1.26l-14.84-3.65a29.67,29.67,0,0,1-10.55-4.78c-12.31-9.07-12.41-26.09-.17-35.27a33.12,33.12,0,0,1,16.13-6.2,4.07,4.07,0,0,0,1.88-.36c3.15.13,6.31,0,9.46.3a43.33,43.33,0,0,1,15.55,4.47,19.61,19.61,0,0,1,7.24,6c1.31,1.83,1.24,2.55-.51,3.84q-4.89,3.62-9.84,7.14c-1.48,1.05-2.22,1.11-3.39-.25-4.31-5-9.89-6.1-16.09-5.54l-.48.06a9.42,9.42,0,0,0-5.4,1.79c-2.51,1.87-2.48,4.59,0,6.41A11.11,11.11,0,0,0,211,548.78Z"/><path class="cls-2" d="M572,594a35.33,35.33,0,0,1-5.87-5.06c-2.82-3.43-2.71-4.37.86-6.86,2.85-2,5.82-3.82,8.53-6a.49.49,0,0,0,.34-.56h0a4.18,4.18,0,0,1,4.6,1.86,31,31,0,0,0,2.18,2.27,14.52,14.52,0,0,0,7,4.08,25.89,25.89,0,0,0,9.39.6,14.66,14.66,0,0,0,7.09-2.24c2.51-1.77,2.75-4.4.64-6.62a9.07,9.07,0,0,0-4.49-2.24c-7.7-2.11-15.66-3.27-23.11-6.29-.74-.5-1.47-1-2.22-1.49-9-5.9-12.71-16.29-9.16-25.84A22.8,22.8,0,0,1,577,528.28a30.85,30.85,0,0,1,9.54-4.15c.78-.2,1.51-.5,2.26-.77,2.25-.25,4.49-.65,6.75-.73a48,48,0,0,1,22,4.21,22.7,22.7,0,0,1,7.88,6c1.77,2.08,1.62,3.11-.62,4.76q-4.3,3.17-8.63,6.31c-2.14,1.57-2.94,1.57-4.8-.4a15,15,0,0,0-12.19-4.93c-2.1.1-4.21-.09-6.27.53a8.78,8.78,0,0,0-2.84,1.36c-2.58,1.95-2.42,4.89.33,6.59a15.39,15.39,0,0,0,4.27,1.73c5.89,1.5,11.78,3,17.65,4.52a26.48,26.48,0,0,1,9.41,4.42c5.45,4.16,8.09,9.7,8.36,16.52a22.31,22.31,0,0,1-5,15.59A25.39,25.39,0,0,1,614.87,597a42.88,42.88,0,0,1-15.4,3A55.2,55.2,0,0,1,578,596.61C576,595.84,574,594.86,572,594Z"/><path class="cls-3" d="M439.62,106.47a6,6,0,0,0,1-2.36c1.4-4.57,2.78-9.15,4.2-13.72.69-2.25.73-2.26,3-2.26q6.57,0,13.15,0c2.34,0,2.39,0,2.39,2.25q0,17.88,0,35.78c0,2.31-.2,2.51-2.48,2.53q-3.88,0-7.79,0c-2.07,0-2.24-.18-2.26-2.2,0-4,0-7.95,0-11.93V103.08c-1,.19-.91.94-1.09,1.5q-3.44,10.77-6.83,21.56c-.81,2.55-.81,2.59-3.56,2.55-6.24-.11-4.72,1-6.69-4.9s-3.88-12-5.85-18a5.08,5.08,0,0,0-1.26-2.66c-.05.79-.12,1.37-.12,2q0,10.33,0,20.68c0,.57,0,1.14,0,1.71,0,.76-.32,1.24-1.14,1.24H417a1.34,1.34,0,0,1-1.46-1.31,18,18,0,0,1-.09-1.94q0-17.16,0-34.32c0-.49,0-1,0-1.46,0-1.11.6-1.54,1.71-1.54,4.87,0,9.74,0,14.61,0,1.37,0,1.76.77,2.12,1.86,1.51,4.71,3.07,9.4,4.63,14.1A6.22,6.22,0,0,0,439.62,106.47Z"/><path class="cls-5" d="M250,102.85c-1,.55-1.14,1.45-1.39,2.25q-3.37,10.53-6.71,21.08c-.77,2.44-.78,2.44-3.39,2.45h-2.68c-2.52,0-2.53,0-3.34-2.52q-3.33-10.29-6.65-20.59a6.64,6.64,0,0,0-1-2.36,5.22,5.22,0,0,0-.27,2.45q0,9.72,0,19.46c0,.56,0,1.13,0,1.7-.1,1.7-.18,1.82-1.83,1.85-2,0-4.05,0-6.08,0-1.77,0-2-.35-2.13-2.18,0-.4,0-.81,0-1.22v-34c0-.41,0-.82,0-1.22.08-1.74.27-2,2-2,2-.06,4,0,6.08,0h6.82c2.88,0,2.89,0,3.77,2.68q2.33,7,4.63,14.08a3.6,3.6,0,0,0,.81,1.76c.7-.44.69-1.22.89-1.88,1.42-4.65,2.82-9.3,4.25-14,.79-2.58.91-2.68,3.54-2.69,4.22,0,8.44,0,12.66,0,2.34,0,2.43.11,2.43,2.51q0,17.76,0,35.52c0,2.51-.16,2.66-2.58,2.68s-5,0-7.55,0c-2.13,0-2.22-.1-2.23-2.19,0-5.52,0-11,0-16.55Z"/><path class="cls-5" d="M447.55,165.52a6.21,6.21,0,0,0,1.22-2.88c1.37-4.41,2.67-8.84,4-13.26.74-2.41.91-2.54,3.4-2.55,4.22,0,8.44,0,12.66,0,2.42,0,2.53.12,2.53,2.42q0,17.88,0,35.76c0,2.33-.2,2.51-2.48,2.54-2.51,0-5,0-7.54,0-2.25,0-2.34-.1-2.34-2.34,0-7.05,0-14.1,0-21.16a6.06,6.06,0,0,0-.23-2.54,4.47,4.47,0,0,0-1.12,2.41c-2.25,7-4.47,14.05-6.71,21.08-.8,2.54-.81,2.54-3.56,2.55-1.21,0-2.43,0-3.65,0a1.66,1.66,0,0,1-1.81-1.27c-.14-.47-.31-.93-.46-1.39q-3.19-9.94-6.4-19.9c-.29-.91-.63-1.81-1.08-3.1a4.56,4.56,0,0,0-.4,2.53q0,9.86,0,19.7c0,.65,0,1.3,0,1.95,0,1-.42,1.5-1.47,1.48-2.27,0-4.55,0-6.82,0a1.52,1.52,0,0,1-1.72-1.6c0-.57,0-1.14,0-1.7V149.94c0-.48,0-1,0-1.45,0-1.13.54-1.64,1.62-1.65h3.66c3.32,0,6.65,0,10,0,2.48,0,2.53.06,3.28,2.34q2.47,7.52,4.92,15C447.1,164.57,447.29,164.92,447.55,165.52Z"/><path class="cls-5" d="M222,166.85c0-5.75,0-11.51,0-17.27,0-2.57.19-2.74,2.79-2.75,5.75,0,11.51-.05,17.27,0a24.13,24.13,0,0,1,9,1.61c4.18,1.72,6.86,4.65,7.1,9.28s-1.49,8.44-5.56,10.89c-1.79,1.07-2.23,1-1,3.58q2.63,5.76,5.21,11.52a15.32,15.32,0,0,1,.83,2c.34,1.14,0,1.71-1.24,1.77-1.62.08-3.25,0-4.87,0s-3.09-.08-4.62,0a2.35,2.35,0,0,1-2.68-1.88c-1.44-4.13-3-8.23-4.46-12.34-.37-1-.8-1.85-2.15-1.92-2.83-.15-3.06,0-3.07,2.82,0,3.57,0,7.13,0,10.7,0,2.41-.21,2.58-2.68,2.6s-4.7,0-7.05,0c-2.68,0-2.81-.12-2.82-2.94,0-5,0-10.06,0-15.08Zm16.63-3.68c1,0,2,.07,2.92,0a3.69,3.69,0,0,0,3.65-3.28,4,4,0,0,0-2.83-4.54,10.49,10.49,0,0,0-3.61-.34c-4.67,0-4.19-.31-4.2,4.19S234.28,163.15,238.66,163.17Z"/><path class="cls-5" d="M137.08,108.23q0-8.76,0-17.51c0-2.71.07-2.83,2.66-2.8,6.89.1,13.79-.32,20.67.28A17.8,17.8,0,0,1,168.85,91c4.62,3,5.22,8.82,3.5,13.24a11.07,11.07,0,0,1-5,5.72c-1.71,1-1.71,1-.92,2.77,1.79,4,3.6,8,5.4,12a18.84,18.84,0,0,1,.76,1.79c.48,1.52.09,2.11-1.53,2.13-3.08,0-6.17,0-9.25,0a2.26,2.26,0,0,1-2.45-1.82c-1.45-4.13-3-8.22-4.48-12.33-.37-1-.73-1.9-2.1-2-2.8-.19-3,0-3,2.79,0,3.57,0,7.14,0,10.7,0,2.34-.32,2.61-2.72,2.63s-5,0-7.54,0c-2.15,0-2.31-.18-2.32-2.41C137.07,120.22,137.08,114.22,137.08,108.23Zm16.72-4c.9,0,1.79,0,2.68,0a3.78,3.78,0,0,0,3.8-3.4,4.09,4.09,0,0,0-3-4.46,10.74,10.74,0,0,0-3.61-.3c-4.59,0-4-.27-4,4C149.7,104.93,149.15,104.22,153.8,104.27Z"/><path class="cls-5" d="M62.55,167c0-5.83,0-11.67,0-17.5,0-2.47.18-2.68,2.61-2.67,5.35,0,10.71-.23,16,.28,4.86.45,9.39,1.76,13.11,5.12,4.85,4.38,6.23,10.06,6,16.3a23,23,0,0,1-.45,3.61A18.32,18.32,0,0,1,84.72,187a27.91,27.91,0,0,1-5.55.53c-4.71,0-9.41,0-14.11,0-2.26,0-2.49-.23-2.5-2.53C62.53,179,62.55,173,62.55,167Zm12.6.19h0c0,3.39,0,6.79,0,10.19,0,1,.34,1.41,1.4,1.48,5.48.33,9.59-2.94,10.38-8.37a23.48,23.48,0,0,0,.35-4.1c-.21-7.21-2.9-10.12-10-10.78l-.25,0c-1.67-.12-1.84,0-1.86,1.65C75.13,160.56,75.15,163.88,75.15,167.2Z"/><path class="cls-5" d="M132.7,108.55a22.41,22.41,0,0,1-1.94,9.92c-2.82,6.22-7.76,9.65-14.41,10.53a22.18,22.18,0,0,1-10.8-1A17.59,17.59,0,0,1,94.24,115.6a26.29,26.29,0,0,1,0-14.16c2.76-10.11,11.35-14.88,21.1-14,11.34,1.08,16.94,9.7,17.4,19.12C132.73,107.25,132.7,107.9,132.7,108.55Zm-13.13.07a24,24,0,0,0-1-8.72A5.37,5.37,0,0,0,112.81,96a5.31,5.31,0,0,0-5.32,4.16,32,32,0,0,0-.85,12.73,14.26,14.26,0,0,0,.84,4,5.25,5.25,0,0,0,4.94,3.64c3.53.19,5.46-1.12,6.45-4.55A23.91,23.91,0,0,0,119.57,108.62Z"/><path class="cls-5" d="M143,167.72a21.31,21.31,0,0,1-1.19,7.71c-2.48,7.17-7.54,11.38-15,12.47a22.5,22.5,0,0,1-9.65-.55,17.53,17.53,0,0,1-12.58-12.68,26,26,0,0,1-.08-14.39c2.76-10,11.15-14.75,20.92-13.89C137.34,147.46,143.11,156.87,143,167.72Zm-13.15.3v-1.9a19.77,19.77,0,0,0-1.29-7.84,5.74,5.74,0,0,0-10.47-.05,11,11,0,0,0-.82,2.53,37.55,37.55,0,0,0-.28,11.59,14.31,14.31,0,0,0,.89,3.76,5.12,5.12,0,0,0,4.66,3.31c3.64.26,5.65-1.1,6.63-4.62A23.19,23.19,0,0,0,129.81,168Z"/><path class="cls-5" d="M178.31,167.3a34.51,34.51,0,0,1,.73-6.41c2.68-10.52,11.18-15.35,21-14.5,10,.87,16.34,7.45,17.55,17.38a28.14,28.14,0,0,1-.61,10.35,17.81,17.81,0,0,1-15.5,13.8,23.64,23.64,0,0,1-9.64-.6c-7.49-2.17-12.54-8.44-13.27-16.54C178.42,169.65,178.38,168.52,178.31,167.3Zm13.22,0a26.18,26.18,0,0,0,.77,7.94,5.38,5.38,0,0,0,4.3,4.12c3.73.69,6.2-.7,7.22-4.34a29.28,29.28,0,0,0,.72-10.59,19.07,19.07,0,0,0-1.14-5.93,5.22,5.22,0,0,0-5.45-3.61c-2.71,0-4.42,1.31-5.42,4A24.26,24.26,0,0,0,191.53,167.29Z"/><path class="cls-5" d="M177.7,108.34v-17c0-.65,0-1.3.05-2a1.35,1.35,0,0,1,1.38-1.4c.65,0,1.3,0,2,0h26.79a1.42,1.42,0,0,1,1.66,1.61c0,1.78,0,3.57-.06,5.35s-.4,2.08-2.23,2.09c-4.63,0-9.25,0-13.88,0-.57,0-1.14,0-1.71,0a1.21,1.21,0,0,0-1.31,1.17c-.06,1.45-.07,2.92,0,4.37,0,1,.82,1.26,1.72,1.26,2.6,0,5.2,0,7.8,0,2.36,0,2.45.11,2.48,2.48,0,1.54,0,3.09,0,4.63,0,1.25-.5,1.75-1.73,1.73-2.6,0-5.2,0-7.8,0-2.35,0-2.56.18-2.54,2.46,0,5.16-.69,4.41,4.29,4.45,4.22,0,8.45,0,12.67,0,2.66,0,2.78.15,2.81,2.71,0,1.46,0,2.92,0,4.38-.06,1.65-.36,2-2.06,2-3.73,0-7.47,0-11.2,0-5.52,0-11,0-16.56,0-2.28,0-2.48-.19-2.49-2.52C177.68,120.19,177.7,114.26,177.7,108.34Z"/><path class="cls-5" d="M477.11,166.85c0-5.84,0-11.68,0-17.52,0-2.31.17-2.49,2.51-2.49q13.39,0,26.79,0c2.26,0,2.37.14,2.38,2.31,0,1.54,0,3.08,0,4.62-.06,1.83-.32,2.11-2.17,2.12-4.46,0-8.92,0-13.39,0-.57,0-1.14,0-1.7,0-1.19-.05-1.85.4-1.8,1.69,0,1.13,0,2.27,0,3.41s.52,1.74,1.75,1.72c2.6,0,5.2,0,7.8,0,2.25,0,2.3.07,2.33,2.34,0,1.54,0,3.09,0,4.63s-.17,1.82-1.8,1.85c-2.6,0-5.2,0-7.8,0-2.16,0-2.28.1-2.26,2.16.07,5.67-.83,4.67,4.71,4.75,4.05.05,8.11,0,12.17,0,2.61,0,2.69.12,2.7,2.79,0,1.54,0,3.08,0,4.62,0,1.1-.51,1.66-1.62,1.64h-29a1.37,1.37,0,0,1-1.56-1.46c0-.56,0-1.13,0-1.7Z"/><path class="cls-3" d="M353.54,129.23a26.32,26.32,0,0,1-13.11-3,11.76,11.76,0,0,1-4.25-3.57c-1-1.39-.93-1.83.4-2.81,1.57-1.16,3.18-2.26,4.81-3.32,1.42-.92,1.81-.92,2.89.4,3.2,3.91,7.32,4.42,11.9,3.43a2.57,2.57,0,0,0,.48-.11c1.22-.48,2.49-.94,2.59-2.54.09-1.24-.78-2.24-2.63-2.76-2.65-.74-5.35-1.34-8-2a19.15,19.15,0,0,1-6.3-2.52,11.69,11.69,0,0,1-.25-19.69,16.26,16.26,0,0,1,6-2.63,25.9,25.9,0,0,1,15.3,1.13,12,12,0,0,1,5.48,3.91c.81,1.11.75,1.46-.46,2.38-1.48,1.14-3,2.23-4.53,3.3s-1.58,1-2.89-.26c-2.74-2.67-6-3-9.49-2.24a4.63,4.63,0,0,0-1.36.5c-1.93,1.08-2,2.86,0,3.92a12.37,12.37,0,0,0,2.74,1c2.66.72,5.34,1.37,8,2.07a25.17,25.17,0,0,1,2.55.81c4.7,1.77,7.43,5.15,7.83,10.17a11.69,11.69,0,0,1-5.72,11.57A20.47,20.47,0,0,1,353.54,129.23Z"/><path class="cls-5" d="M398.67,146.83c1.46,0,2.93,0,4.39,0,2.19,0,2.65.35,3.38,2.42,1.85,5.19,3.67,10.39,5.5,15.59q3.22,9.18,6.47,18.34c.24.69.52,1.37.7,2.08.44,1.77.11,2.25-1.66,2.27-3,0-6,0-9,0a1.93,1.93,0,0,1-2.16-1.5c-.53-1.7-1.17-3.37-1.7-5.07a1.61,1.61,0,0,0-1.78-1.28c-3.32,0-6.65,0-10,0a1.78,1.78,0,0,0-1.95,1.41c-.51,1.62-1.12,3.21-1.66,4.83a2,2,0,0,1-2.09,1.62c-2.43-.06-4.87,0-7.3,0-1.37,0-1.74-.54-1.48-1.84a12.19,12.19,0,0,1,.52-1.62l12.31-34.59c.94-2.64.95-2.64,3.85-2.65C396.24,146.82,397.46,146.83,398.67,146.83ZM398,160h-.64l-3.23,9c-.28.8,0,1.31.84,1.33,1.77,0,3.54,0,5.31,0,.82,0,1.17-.48.89-1.29Q399.63,164.53,398,160Z"/><path class="cls-5" d="M290.07,188a25.75,25.75,0,0,1-12.69-2.78,11.7,11.7,0,0,1-4.63-3.85c-.87-1.29-.82-1.73.41-2.62,1.64-1.2,3.33-2.32,5-3.46a1.8,1.8,0,0,1,2.75.4c3,3.79,6.93,4.47,11.38,3.62,2.29-.44,3.51-1.36,3.61-2.7s-1-2.49-3.49-3.11c-2.75-.7-5.51-1.36-8.28-2a16.52,16.52,0,0,1-4.07-1.58c-8.56-4.62-8.87-15.72-.6-20.84a19.54,19.54,0,0,1,9.23-2.76A24.83,24.83,0,0,1,301,148.57a11.24,11.24,0,0,1,4.54,3.57,1.29,1.29,0,0,1-.29,2.07c-1.72,1.22-3.43,2.45-5.12,3.71-1,.77-1.78.35-2.53-.44-2.43-2.56-5.53-2.86-8.78-2.48-2,.23-3.43,1.33-3.56,2.49s1,2.22,3.2,2.81c3.05.83,6.12,1.59,9.17,2.41a21.49,21.49,0,0,1,3,1,12.11,12.11,0,0,1,2.53,20.77,18.82,18.82,0,0,1-9.95,3.53C292.19,188.1,291.13,188,290.07,188Z"/><path class="cls-3" d="M297.08,108.19V91.4c0-.57,0-1.14,0-1.71a1.42,1.42,0,0,1,1.67-1.58c1.21,0,2.43,0,3.65,0H317a19.09,19.09,0,0,1,9.15,2.12c4.8,2.53,7,6.59,6.68,12-.33,5.22-3.09,8.74-7.88,10.72a18.52,18.52,0,0,1-7.15,1.24c-1.94,0-3.89,0-5.84,0-2.34,0-2.36,0-2.37,2.51,0,3.17,0,6.33,0,9.49,0,2.32-.18,2.48-2.5,2.5q-3.89,0-7.79,0c-2,0-2.2-.18-2.22-2.25,0-4.14,0-8.28,0-12.41ZM313,105.32c1.29,0,2.1,0,2.91,0a4.07,4.07,0,0,0,4.17-4.13,4.12,4.12,0,0,0-3.9-4.2c-1.7-.12-3.41,0-5.11,0-1,0-1.47.52-1.46,1.51s0,2,0,2.92C309.63,105.8,309.22,105.29,313,105.32Z"/><path class="cls-3" d="M375.17,102.34c0-4,0-8,0-11.92,0-2.23.08-2.28,2.37-2.29,2.52,0,5,0,7.55,0s2.46,0,2.46,2.41q0,10.57,0,21.16A19.8,19.8,0,0,0,388,116a5.12,5.12,0,0,0,4.82,4.39c3.21.29,5.5-.94,6.5-3.54a14.69,14.69,0,0,0,.73-5.27V91.43c0-.57,0-1.14,0-1.71,0-1.11.45-1.62,1.59-1.6,2.35,0,4.71,0,7.06,0,1.32,0,1.66.67,1.64,1.83,0,2.35,0,4.7,0,7q0,7.92,0,15.82a25.08,25.08,0,0,1-.89,6.73,11.53,11.53,0,0,1-7.38,8.14,27.06,27.06,0,0,1-18.36.19c-3.82-1.27-6.08-4.17-7.36-7.89a24.79,24.79,0,0,1-1.13-8.15Z"/><path class="cls-5" d="M163.15,523.64c2.84,0,5.68,0,8.52,0,2.47,0,3.08.67,2.83,3.08-.48,4.59-1,9.18-1.56,13.77q-1.37,12.07-2.74,24.15c-.16,1.45-.3,2.91-.5,4.35-.3,2.22-1.09,3-3.32,3.07s-4.54.07-6.82,0c-2.09-.05-2.7-.62-3-2.73-.51-4.11-1-8.21-1.46-12.32q-1.63-13.87-3.26-27.76c-.1-.89-.2-1.78-.23-2.67-.09-2.34.41-2.91,2.74-3C157.31,523.61,160.23,523.64,163.15,523.64Z"/><path class="cls-2" d="M647.2,615.6h-8.27c-2.86,0-3.25-.38-3-3.28s.72-5.77,1.1-8.65c.58-4.32,1.2-8.63,1.76-12.95.69-5.21,1.32-10.41,2-15.61.28-2.08,1.15-2.85,3.18-2.88,2.27,0,4.54-.05,6.81,0,1.94,0,2.86.83,3.1,2.7.69,5.28,1.32,10.57,2,15.85.74,5.77,1.51,11.53,2.25,17.29.23,1.76.51,3.52.62,5.29s-.36,2.19-2.1,2.22c-3.16,0-6.32,0-9.48,0Z"/><path class="cls-5" d="M530.46,146.83c5,0,10.06,0,15.09,0,2.42,0,2.62.25,2.65,2.66,0,1.21,0,2.43,0,3.65,0,2.51-.15,2.65-2.57,2.68-2,0-4.06,0-6.09,0-3.16,0-3-.18-3,2.85V184c0,.56,0,1.13,0,1.7-.07,1.65-.2,1.83-1.82,1.85q-4.38.06-8.76,0c-1.74,0-1.9-.17-1.92-2,0-3.89,0-7.79,0-11.68,0-5.27,0-10.55,0-15.82,0-2.15,0-2.17-2.17-2.19s-4.54,0-6.82,0-2.39-.17-2.42-2.31c0-1.46,0-2.92,0-4.38,0-2,.26-2.26,2.23-2.29,3.49,0,7,0,10.47,0Z"/><path class="cls-5" d="M346.72,146.83c5,0,10.06,0,15.09,0,2.54,0,2.72.22,2.74,2.81,0,1.38,0,2.76,0,4.14-.05,1.71-.3,2-2,2-2.44.06-4.87,0-7.31,0-2.28,0-2.3,0-2.31,2.27q0,12.9,0,25.8v1.22c0,2.4,0,2.42-2.47,2.43-2.68,0-5.36,0-8,0-1.8,0-2-.16-2-1.92-.05-2.35,0-4.71,0-7.06V159.09c0-.57,0-1.14,0-1.7.06-1.15-.47-1.59-1.6-1.57-2.19.05-4.38,0-6.57,0-3.24,0-3.24,0-3.25-3.2,0-1.3,0-2.6,0-3.9.06-1.54.31-1.84,1.89-1.88,2.68-.06,5.36,0,8,0Z"/><path class="cls-5" d="M147.5,167.17c0-5.75,0-11.51,0-17.26,0-2.94.13-3.06,2.95-3.08,2.44,0,4.87,0,7.3,0,2.17,0,2.3.15,2.3,2.4q0,12.88,0,25.77c0,3.74-.44,3.46,3.58,3.47s8.27,0,12.41,0c2.3,0,2.42.17,2.44,2.53,0,1.62,0,3.24,0,4.86,0,1.09-.49,1.67-1.61,1.66h-.73q-13.12,0-26.27,0c-2.13,0-2.36-.21-2.37-2.38C147.48,179.17,147.5,173.17,147.5,167.17Z"/><path class="cls-5" d="M62.55,108.31c0-5.92,0-11.83,0-17.75,0-2.5.14-2.62,2.59-2.64s5,0,7.54,0c2.3,0,2.46.18,2.46,2.52,0,8.59,0,17.18,0,25.77,0,3.61-.43,3.34,3.43,3.35,4.13,0,8.27,0,12.4,0,2.32,0,2.52.22,2.55,2.48,0,1.54,0,3.08,0,4.62s-.34,1.94-2.06,2c-4.7,0-9.4,0-14.1,0H65.21c-2.52,0-2.65-.11-2.65-2.57C62.54,120.14,62.55,114.23,62.55,108.31Z"/><path class="cls-5" d="M312,167.11c0-5.92,0-11.83,0-17.75,0-2.34.17-2.5,2.46-2.53,2.68,0,5.35,0,8,0,1.85,0,2.09.26,2.1,2.15q0,18.12,0,36.23c0,2-.38,2.3-2.5,2.32-2.43,0-4.87,0-7.3,0-2.7,0-2.77-.07-2.78-2.69C312,178.94,312,173,312,167.11Z"/><path class="cls-3" d="M291.59,108.18c0,5.92,0,11.85,0,17.77,0,2.62-.12,2.73-2.75,2.74-2.43,0-4.87,0-7.3,0s-2.45-.14-2.47-2.51c0-3.25,0-6.5,0-9.74V91.37c0-.65,0-1.3.05-2a1.27,1.27,0,0,1,1.41-1.33c3.24,0,6.49,0,9.74,0,1.1,0,1.34.65,1.34,1.58,0,2.11,0,4.22,0,6.33Z"/><path class="cls-2" d="M647.32,565.35c-2.59,0-5.19,0-7.78,0-2.34,0-3.06-.73-3.09-3.05q-.06-6.93,0-13.85c0-2.34.8-3.18,3.21-3.36,1.94-.14,3.89-.06,5.83-.06,2.59,0,5.18,0,7.78,0a9.8,9.8,0,0,1,2.63.35,2.33,2.33,0,0,1,1.94,2.43c0,5.1,0,10.2,0,15.3,0,1.65-.69,2.21-2.49,2.24C652.66,565.38,650,565.35,647.32,565.35Z"/><path class="cls-5" d="M163.15,579c2.67,0,5.35,0,8,0,2,0,2.42.44,2.43,2.45,0,4.87,0,9.73,0,14.59,0,2.12-.83,2.91-3,2.93-5.19,0-10.38,0-15.57,0-2.08,0-2.76-.67-2.79-2.79q-.08-7.29,0-14.58c0-2.07.57-2.57,2.64-2.6C157.63,579,160.39,579,163.15,579Z"/><path class="cls-2" d="M151.27,211.31a18.11,18.11,0,0,0-1,5c-1.39,9.43-2.66,18.88-4,28.33a3.76,3.76,0,0,1-.26,1.17c-.42.79-1.19.76-1.92.57s-.44-.73-.38-1.21c.62-4.56,1.22-9.13,1.85-13.69.72-5.12,1.47-10.24,2.19-15.36.38-2.64.7-5.29,1.08-7.93a6.12,6.12,0,0,1,.44-1.64,1.17,1.17,0,0,1,2.12-.29,11.78,11.78,0,0,1,1.29,2q6.58,12.33,13.15,24.67c1.4,2.62,2.85,5.22,4.45,8.14,1.13-2.24,1-4.37,1.31-6.37,1-6.55,1.87-13.12,2.8-19.68.35-2.48.72-5,1.08-7.44.05-.32.06-.65.14-1a1.21,1.21,0,0,1,1.48-.93c.74.08.91.64.85,1.24-.19,1.85-.4,3.69-.65,5.54q-1.12,8.16-2.3,16.32c-.77,5.35-1.57,10.71-2.36,16.06-.09.63,0,1.37-.88,1.53a1.74,1.74,0,0,1-2-.95c-1.29-2.44-2.61-4.86-3.91-7.28l-13.62-25.25C152,212.51,151.77,212.12,151.27,211.31Z"/><path class="cls-2" d="M476.88,205.64a76.5,76.5,0,0,1,8.92.38c5.59.74,8.64,5,7.55,10.53a11.89,11.89,0,0,1-7.86,9.42c-.3.11-.59.28-.9.36-1,.25-1.2.82-.9,1.81.93,3.1,1.78,6.23,2.67,9.35.68,2.41,1.38,4.83,2.06,7.24.17.59.64,1.35-.32,1.61s-1.81.39-2.23-.79c-.13-.38-.27-.76-.38-1.15q-2.08-7.36-4.15-14.74c-.74-2.6-.8-2.65-3.49-2.65-2.84,0-5.68,0-8.52,0-1.79,0-2.11.27-2.37,2.05-.55,3.76-1,7.53-1.55,11.29-.2,1.44-.37,2.89-.57,4.33a4.28,4.28,0,0,1-.26.93c-.33.89-1.06.92-1.81.77s-.78-.78-.71-1.34c.34-2.65.71-5.29,1.09-7.93q1.38-9.74,2.78-19.45c.49-3.44,1-6.88,1.44-10.33a1.66,1.66,0,0,1,1.9-1.7C471.54,205.65,473.82,205.64,476.88,205.64Zm-1.82,19v-.06a54.15,54.15,0,0,0,5.84,0c5.5-.58,8.6-3,9.56-7.19,1.06-4.66-.38-8.37-5.62-9-4.54-.57-9.07-.15-13.61-.26-.86,0-1.21.52-1.46,1.33a43.06,43.06,0,0,0-.72,5c-.49,2.71-.86,5.44-1.17,8.17-.2,1.73.08,2,1.82,2S473.27,224.62,475.06,224.62Z"/><path class="cls-2" d="M136.11,221.15a32.32,32.32,0,0,1-2.55,14c-2.49,5.88-6.49,10.27-13.1,11.49a17.87,17.87,0,0,1-9.59-.48c-5.3-1.95-7.85-6.09-8.3-11.51a38.09,38.09,0,0,1,2.9-18.27,18,18,0,0,1,16.72-11.25c8.39.2,13.35,4.74,13.91,13.61C136.16,219.66,136.11,220.55,136.11,221.15Zm-19.34,23.46c6.28.09,10.82-2.8,13.43-8.36a33.49,33.49,0,0,0,3.05-19.14c-1-7-5.7-9.86-12.14-9.5s-10.78,3.91-13.15,9.7-3.58,11.78-2.53,18c.94,5.62,3.69,8.06,8.2,9A21.69,21.69,0,0,0,116.77,244.61Z"/><path class="cls-2" d="M334.62,246.47c-3.49,0-7,0-10.47,0-1.66,0-1.72-.07-1.5-1.81q1.08-8.29,2.24-16.58c.71-5.13,1.46-10.25,2.19-15.37.26-1.76.53-3.52.77-5.28a1.85,1.85,0,0,1,2.14-1.79c6.65,0,13.31,0,20,0,.71,0,1.55-.08,1.71.93.12.85-.54,1.42-1.79,1.43-5.6,0-11.2,0-16.8,0-2.78,0-2.77,0-3.1,2.8-.49,3.93-1,7.86-1.58,11.78-.27,2-.28,2,1.79,2,3.89,0,7.79,0,11.69,0,.56,0,1.13,0,1.7,0a1,1,0,0,1,1,1.13c0,.64-.28,1.11-1,1.17s-1.14,0-1.71,0c-4,0-7.95,0-11.93,0-2.06,0-2.12,0-2.45,2.12-.66,4.23-1.29,8.47-1.85,12.71-.26,2,0,2.24,2.08,2.25,5.44,0,10.87,0,16.31,0l1.71,0c.74,0,1.26.27,1.26,1.12a1.07,1.07,0,0,1-1.18,1.21l-2.43,0Z"/><path class="cls-2" d="M440.67,246.47c-3.41,0-6.82,0-10.23,0-1.43,0-1.91-.08-1.65-1.74.84-5.52,1.51-11.06,2.27-16.58.72-5.21,1.48-10.41,2.23-15.61.25-1.76.55-3.51.8-5.27a1.75,1.75,0,0,1,2-1.65c6.74,0,13.47,0,20.21,0,.74,0,1.6,0,1.55,1.07s-.75,1.3-1.69,1.3c-5.28,0-10.55,0-15.83,0-.65,0-1.3,0-1.95,0a1.77,1.77,0,0,0-2.14,1.75c-.31,2.4-.67,4.8-1,7.21-.27,2-.51,4-.76,6-.19,1.47-.12,1.61,1.55,1.63,3.82,0,7.63,0,11.45,0,.73,0,1.46,0,2.19,0a1,1,0,0,1,1.07,1c0,.77-.32,1.25-1.13,1.27-1.21,0-2.43,0-3.65,0-3.33,0-6.66,0-10,0-1.92,0-2,0-2.29,2-.66,4.24-1.29,8.48-1.86,12.72-.27,2.09,0,2.34,2.23,2.34,5.44,0,10.87,0,16.31,0,.65,0,1.3,0,1.95.07a.89.89,0,0,1,.86,1c0,.62-.12,1.17-.84,1.26a13.73,13.73,0,0,1-1.7.06Z"/><path class="cls-2" d="M231.07,246.47c-3.32,0-6.65,0-10,0-2.06,0-2.33-.32-2.06-2.21q2.1-14.4,4.22-28.78c.38-2.64.76-5.28,1-7.94.13-1.28.62-1.9,1.95-1.9,6.81,0,13.63,0,20.44,0,.81,0,1.47.18,1.44,1.19s-.67,1.18-1.48,1.18c-5.27,0-10.55,0-15.82,0-4.56,0-3.69-.47-4.52,4-.59,3.17-.95,6.39-1.4,9.59,0,.32-.08.64-.1,1-.08,1.74.1,2,1.85,2,3.81,0,7.62,0,11.43,0,.65,0,1.3,0,1.95.07a.91.91,0,0,1,.84,1c0,.63-.17,1.15-.88,1.24a16,16,0,0,1-1.7.06c-4,0-8,0-11.92,0-2.1,0-2.28.25-2.55,2.36-.55,4.24-1.14,8.49-1.73,12.73-.25,1.75-.13,2,1.69,2,5.6,0,11.19,0,16.79,0,.65,0,1.3,0,1.94.05s1.13.36,1,1.08-.31,1.12-1,1.18-1.14.05-1.7.05Z"/><path class="cls-2" d="M195.67,247a13.78,13.78,0,0,1-7.83-1.66,12.72,12.72,0,0,1-4.44-4.4c-.43-.68-.68-1.35.12-1.9a1.38,1.38,0,0,1,2.1.43c1.53,2.16,3.3,4.1,6,4.68,4.21.89,8.38.88,12.27-1.3s4.4-5.7,3.7-9.18c-.34-1.67-1.74-2.68-3.2-3.48-2.71-1.47-5.65-2.43-8.48-3.63-1.05-.45-2.1-.88-3.11-1.39-5-2.52-5.76-6.14-4.77-10.72a10.39,10.39,0,0,1,6.13-7.41c6-2.78,11.74-2.69,17.09,1.59a5.91,5.91,0,0,1,1.59,1.82,1,1,0,0,1-.33,1.48c-.49.36-1,.57-1.51.06-.35-.34-.7-.69-1-1-4.24-4.39-11.65-4.1-16.12-.91a8.86,8.86,0,0,0-3.5,5.66,5.56,5.56,0,0,0,2.27,6,15.59,15.59,0,0,0,3.85,2c2.88,1.09,5.79,2.12,8.56,3.46,6.36,3.06,7.61,10.33,2.78,15.55-2.64,2.85-6.09,3.87-9.8,4.26A22.38,22.38,0,0,1,195.67,247Z"/><path class="cls-2" d="M402.6,247a13,13,0,0,1-6-1,8.49,8.49,0,0,1-5.21-6.54c-.58-2.78-.13-5.49.22-8.2.84-6.49,1.82-13,2.75-19.45.22-1.52.42-3,.68-4.56.16-.94.53-1.76,1.74-1.54s1,1.16.87,1.91c-.88,6.25-1.88,12.48-2.67,18.73-.44,3.45-1.25,6.85-1.19,10.37.08,4.25,1.71,6.58,5.82,7.51a16.44,16.44,0,0,0,9.8-.63c4.48-1.77,6.18-5.5,6.8-9.89,1.22-8.57,2.35-17.15,3.52-25.72a.93.93,0,0,1,0-.24c.32-.84.13-2.19,1.58-2,1.64.21.86,1.47.74,2.3-.89,6.57-1.83,13.13-2.76,19.7-.35,2.4-.72,4.8-1.06,7.2-1.1,7.74-6.51,12.28-14.51,12.05Z"/><path class="cls-2" d="M64.47,230.72c.16-6.5,1.39-12.67,5.25-18.12a17,17,0,0,1,13.06-7.44c4.86-.4,12.08,2.45,13.5,8.86.06.24.17.46.21.7.16.86.12,1.66-.93,1.92s-1.65,0-1.9-1.21c-1-4.61-4-7.14-8.54-7.75a13.82,13.82,0,0,0-8.84,2,14.42,14.42,0,0,0-4.87,5,28.94,28.94,0,0,0-4,11.63,25.44,25.44,0,0,0,.44,10.81,10.1,10.1,0,0,0,9.21,7.4c3.56.2,7-.2,9.91-2.46a16.78,16.78,0,0,0,4-4.8c.36-.56.67-1.09,1.48-1,1.22.12,1.67.84,1,1.91-3.24,5.48-7.88,8.72-14.41,8.79a19.18,19.18,0,0,1-4.59-.31,11.91,11.91,0,0,1-9.08-8.26A20.13,20.13,0,0,1,64.47,230.72Z"/><path class="cls-2" d="M250.56,230.73c.15-6.5,1.39-12.67,5.25-18.13a17,17,0,0,1,13-7.44c4.87-.4,12.1,2.45,13.52,8.85,0,.16.1.31.14.47.23.92.32,1.8-.85,2.16s-1.57,0-1.92-1.45c-1.15-4.6-4.23-7-8.76-7.54a13.59,13.59,0,0,0-8.6,2,16,16,0,0,0-5.37,5.85,27.74,27.74,0,0,0-3.39,10.07,26,26,0,0,0,.32,11.54,10.16,10.16,0,0,0,9.21,7.4c3.56.2,7-.19,9.91-2.45a17.26,17.26,0,0,0,4.05-4.8c.35-.56.66-1.1,1.47-1,1.24.11,1.69.83,1.05,1.9-3.24,5.48-7.87,8.72-14.4,8.79a19.28,19.28,0,0,1-4.6-.29,11.94,11.94,0,0,1-9.08-8.26A20.13,20.13,0,0,1,250.56,230.73Z"/><path class="cls-5" d="M550.16,176.64h4.14a1.34,1.34,0,0,1,1.52,1.48c0,2.51,0,5,0,7.54a3.13,3.13,0,0,1-.77,1.75c-1.8,2.51-3.6,5-5.38,7.53a3.87,3.87,0,0,1-3.54,1.73c-1.37-.06-1.77-.6-1.27-1.87s1.22-2.66,1.82-4c.24-.51.46-1,.67-1.56.36-.95.17-1.51-1-1.7-2.09-.36-2.1-.41-2.12-2.34,0-2.19,0-4.39,0-6.57,0-1.75.22-1.93,2-2,1.3-.06,2.6,0,3.9,0Z"/><path class="cls-2" d="M372.66,205.63h11.43c.49,0,1,0,1.46,0,.68,0,1.33.09,1.37,1a1.14,1.14,0,0,1-1.29,1.36h-4.14c-1.94,0-3.89,0-5.83,0a1.55,1.55,0,0,0-1.8,1.51q-1,7.58-2,15.13c-.68,5-1.42,9.91-2.13,14.87-.26,1.84-.58,3.67-.75,5.52-.11,1.21-.74,1.49-1.78,1.39-1.25-.12-1-.93-.91-1.78q1.88-13.2,3.73-26.39c.39-2.72.84-5.43,1.26-8.14.28-1.8.05-2.09-1.88-2.11-3.41,0-6.81,0-10.22,0-.69,0-1.33-.13-1.31-1a1.22,1.22,0,0,1,1.2-1.27,4.36,4.36,0,0,1,.72-.05h12.89Z"/><path class="cls-2" d="M304.89,205.63h11.67c.57,0,1.14,0,1.7,0a1,1,0,0,1,1,1.14c0,.65-.31,1.12-1,1.15-1.06,0-2.11,0-3.16,0-2.35,0-4.71,0-7.06,0-1.18,0-1.72.5-1.88,1.7-1.12,8.49-2.29,17-3.46,25.45-.47,3.36-1,6.71-1.43,10.07-.15,1.11-.81,1.26-1.71,1.22s-1.16-.65-1-1.5q1.32-8.87,2.61-17.73t2.51-17.51c.19-1.33-.12-1.66-1.64-1.68-3,0-6,0-9,0-.57,0-1.14,0-1.7,0s-1.12-.22-1.13-1a1.12,1.12,0,0,1,.9-1.26,10.38,10.38,0,0,1,1.93-.12Z"/><path class="cls-3" d="M216.78,572.94a14.57,14.57,0,0,1,3.88,1.26c1.79.95,3.26,2.22,3.15,4.45s-1.53,3.59-3.67,4.18c-.95-2.46-1.91-4.91-2.83-7.38C217,574.65,216.48,573.88,216.78,572.94Z"/><path class="cls-6" d="M342.67,647.17c-1.52-2.88-3.66-5.33-5.35-8.1a127.37,127.37,0,0,1-15-36.48c-.08-.31-.12-.63-.2-1-.55-2.14-.56-2.17-2.78-2.17-4.05,0-8.11,0-12.16,0-.87,0-1.8.24-2.55-.47l20,0c2.12,0,2.76-.74,2.49-2.8a7.76,7.76,0,0,0-.46-1.63c-.74-2.15-1.5-4.28-2.24-6.43q-3.27-9.39-6.53-18.79a2.22,2.22,0,0,0,.43-1.6c0-3.31.19-6.61.39-9.91a143.13,143.13,0,0,1,2.75-20.12,22.38,22.38,0,0,1,1.31-5.15,6.11,6.11,0,0,1,1.38,2c6.07,9.88,12.07,19.8,18.21,29.63a13.87,13.87,0,0,1,2.22,7.78c-.1,8-.05,16.06,0,24.09,0,2.58.38,3,3,3,5.52,0,11,0,16.55,0,.25,0,.49,0,.73,0,1.88-.16,2.6-.86,2.73-2.73.05-.64,0-1.3,0-1.94,0-8.36,0-16.71,0-25.07a10.68,10.68,0,0,1,1.72-6c7.4-11.81,14.71-23.68,22.05-35.54a19.79,19.79,0,0,0,1.1-1.89c.58-1.24.29-1.82-1-2.1a6.15,6.15,0,0,0-1.21-.07c-4.95,0-9.9,0-14.85,0a4.21,4.21,0,0,0-4.19,2.62c-3.69,7-7.54,14-11.34,21-.4.74-.61,1.66-1.64,2.13-.48-.79-.91-1.46-1.29-2.15-3.46-6.24-6.89-12.49-10.38-18.72-2.89-5.16-1.91-4.78-8.24-4.83-4.21,0-8.42.24-12.63-.16,0-2.69,1.32-5,2.25-7.37a108.37,108.37,0,0,1,16.39-28.84c9.4-11.73,20.75-20.9,35.12-25.94a62.35,62.35,0,0,1,25.88-3,58,58,0,0,1,18.92,5.07,75.35,75.35,0,0,1,21,14.22,100.16,100.16,0,0,1,19.07,25,133.77,133.77,0,0,1,8.55,19.57,13.11,13.11,0,0,1,.32,1.41,4.66,4.66,0,0,0-3.37,2.81c-3.72,7-7.54,14-11.35,21-.37.68-.54,1.56-1.51,1.89a4.61,4.61,0,0,1-1.34-1.93c-3.82-6.87-7.71-13.71-11.41-20.65a5,5,0,0,0-5-3c-5.92.1-11.85,0-17.77,0-1.25,0-2.8-.43-3.56.9s.38,2.45,1,3.52c7.36,12,14.7,24.1,22.15,36.08a13.35,13.35,0,0,1,2.1,7.56c-.1,7.7,0,15.41,0,23.12,0,.65,0,1.3,0,1.94.16,1.46.72,2.11,2.15,2.13q9.12.07,18.26,0c1.72,0,2.46-.81,2.68-2.54a16,16,0,0,0,.06-2.19c0-8.27,0-16.54,0-24.82,0-1.61-.12-3.25.8-4.72q5.76-9.16,11.49-18.33a141.07,141.07,0,0,1,1.36,30.72,135.63,135.63,0,0,1-7.14,37,114.4,114.4,0,0,1-13.87,28.24c-.64.93-1.19,1.92-1.79,2.88l-3.51,4.35a86.67,86.67,0,0,1-15.31,14.89c-1.78,1.34-1.71,1.82-1,4,.92,3.1,1.56,6.29,2.29,9.44,4.63,20.22,9.22,40.45,13.93,60.65a3.72,3.72,0,0,1-1.25,4q-22,21.39-43.88,42.84l-7.81,7.64c-3.18-3.13-6.27-6.1-9.28-9.15q-15.57-15.75-31.09-31.55c-3.3-3.35-6.56-6.74-9.92-10a3.52,3.52,0,0,1-1-3.67q6.42-30.19,12.69-60.42c.66-3.17,1.31-6.35,2-9.51a1.7,1.7,0,0,0-.65-2.11,89.43,89.43,0,0,1-20.19-19.22A1.59,1.59,0,0,0,342.67,647.17Z"/><path class="cls-4" d="M317.87,569.36q3.27,9.4,6.53,18.79c.74,2.15,1.5,4.28,2.24,6.43a7.76,7.76,0,0,1,.46,1.63c.27,2.06-.37,2.79-2.49,2.8l-20,0a4.31,4.31,0,0,1-1.52-2.41c-1.08-3.3-2.22-6.59-3.35-9.88-.76-2.21-.82-2.27-3.07-2.27q-9.49,0-19,0c-2.39,0-2.4,0-3.23,2.41-1.1,3.13-2.18,6.27-3.28,9.4-.93,2.64-1.13,2.78-3.79,2.79H254c-2.83,0-3.6-1-2.66-3.82,1.5-4.44,3.09-8.86,4.67-13.28q9.66-27.23,19.35-54.45c.22-.61.44-1.22.67-1.82a2.76,2.76,0,0,1,2.81-1.91c6.65,0,13.3,0,19.95,0,2.06,0,3.26,1.23,3.92,3.07.82,2.28,1.62,4.57,2.43,6.86q6.06,17.18,12.13,34.34C317.47,568.48,317.68,568.92,317.87,569.36Zm-30.86-22c-.2.2-.36.3-.41.44-2.1,5.75-4.23,11.5-6.26,17.29-.53,1.53-.08,2,1.64,2.06,2.59.05,5.18,0,7.76,0,1,0,1.94,0,2.91,0s1.46-.6,1.19-1.61c-.12-.47-.28-.93-.44-1.39q-2.65-7.53-5.31-15.06C287.88,548.5,287.83,547.82,287,547.37Z"/><path class="cls-2" d="M499,561.51V528.16c0-.56,0-1.13,0-1.7.08-2.16.49-2.57,2.57-2.66H554c3.53,0,3.72.2,3.67,3.68,0,3.25,0,6.49-.1,9.74,0,2.61-.68,3.25-3.37,3.26q-14,0-28,0c-3.93,0-4.07.15-4.08,4.13,0,1.71,0,3.41,0,5.11,0,2.93.51,3.41,3.4,3.41,5.27,0,10.55,0,15.82,0,2.77,0,3,.28,3,3.09,0,3.41,0,6.81,0,10.22,0,2.82-.17,3-3.08,3-5.36,0-10.71,0-16.07,0-2.79,0-3.09.3-3.11,3,0,2.44,0,4.87,0,7.3s.15,2.61,2.63,2.62h29.95c3.87,0,3.88,0,3.88,4,0,3.24,0,6.49,0,9.73,0,2.38-.51,2.89-2.85,2.89q-26.79,0-53.57,0c-2.57,0-3.07-.53-3.07-3.21Q499,578.66,499,561.51Z"/><path class="cls-2" d="M478.57,546.4q-5.74,9.17-11.49,18.33c-.92,1.47-.8,3.11-.8,4.72,0,8.28,0,16.55,0,24.82a16,16,0,0,1-.06,2.19c-.22,1.73-1,2.52-2.68,2.54q-9.13.09-18.26,0c-1.43,0-2-.67-2.15-2.13-.06-.64,0-1.29,0-1.94,0-7.71-.07-15.42,0-23.12a13.35,13.35,0,0,0-2.1-7.56c-7.45-12-14.79-24-22.15-36.08-.66-1.07-1.81-2.17-1-3.52s2.31-.9,3.56-.9c5.92,0,11.85,0,17.77,0a5,5,0,0,1,5,3c3.7,6.94,7.59,13.78,11.41,20.65a4.61,4.61,0,0,0,1.34,1.93c1-.33,1.14-1.21,1.51-1.89,3.81-7,7.63-13.94,11.35-21a4.66,4.66,0,0,1,3.37-2.81h.06a4.48,4.48,0,0,0,2.58.28c5,0,10,0,14.92.05,1.15,1,.45,1.91-.1,2.79-2.15,3.52-4.35,7-6.51,10.53C482.23,540.3,480.41,543.35,478.57,546.4Z"/><path class="cls-4" d="M325.63,523.53c4.21.4,8.42.13,12.63.16,6.33,0,5.35-.33,8.24,4.83,3.49,6.23,6.92,12.48,10.38,18.72.38.69.81,1.36,1.29,2.15,1-.47,1.24-1.39,1.64-2.13,3.8-7,7.65-13.92,11.34-21a4.21,4.21,0,0,1,4.19-2.62c5,0,9.9,0,14.85,0a6.15,6.15,0,0,1,1.21.07c1.29.28,1.58.86,1,2.1a19.79,19.79,0,0,1-1.1,1.89c-7.34,11.86-14.65,23.73-22.05,35.54a10.68,10.68,0,0,0-1.72,6c0,8.36,0,16.71,0,25.07,0,.64,0,1.3,0,1.94-.13,1.87-.85,2.57-2.73,2.73-.24,0-.48,0-.73,0-5.51,0-11,0-16.55,0-2.61,0-3-.38-3-3,0-8-.07-16.06,0-24.09a13.87,13.87,0,0,0-2.22-7.78c-6.14-9.83-12.14-19.75-18.21-29.63a6.11,6.11,0,0,0-1.38-2,38.41,38.41,0,0,0-2.62-4.58c-.31-.56-.7-1.09-.95-1.67-.64-1.48-.19-2.3,1.41-2.54S324,524,325.63,523.53Z"/><path class="cls-1" d="M579.16,566.88c7.45,3,15.41,4.18,23.11,6.29a9.07,9.07,0,0,1,4.49,2.24c2.11,2.22,1.87,4.85-.64,6.62a14.66,14.66,0,0,1-7.09,2.24,25.89,25.89,0,0,1-9.39-.6,14.52,14.52,0,0,1-7-4.08,31,31,0,0,1-2.18-2.27,4.18,4.18,0,0,0-4.6-1.86c.45-2,1.54-3.79,2.28-5.7A10.49,10.49,0,0,0,579.16,566.88Z"/><path class="cls-1" d="M211,548.78a11.11,11.11,0,0,1-5.13-1.9c-2.53-1.82-2.56-4.54,0-6.41a9.42,9.42,0,0,1,5.4-1.79A44.31,44.31,0,0,0,211,548.78Z"/><path class="cls-6" d="M490.7,523.94c-5,0-9.95,0-14.92-.05a4.48,4.48,0,0,1-2.58-.28c5.47-.3,10.95-.07,16.43-.12A1.38,1.38,0,0,1,490.7,523.94Z"/><path class="cls-1" d="M575.86,575.47a.49.49,0,0,1-.34.56C575.51,575.77,575.57,575.55,575.86,575.47Z"/><path class="cls-1" d="M238.66,163.17c-4.38,0-4.07.62-4.07-4s-.47-4.2,4.2-4.19a10.49,10.49,0,0,1,3.61.34,4,4,0,0,1,2.83,4.54,3.69,3.69,0,0,1-3.65,3.28C240.61,163.24,239.63,163.17,238.66,163.17Z"/><path class="cls-1" d="M153.8,104.27c-4.65,0-4.1.66-4.11-4.13,0-4.32-.57-4.06,4-4a10.74,10.74,0,0,1,3.61.3,4.09,4.09,0,0,1,3,4.46,3.78,3.78,0,0,1-3.8,3.4C155.59,104.32,154.7,104.27,153.8,104.27Z"/><path class="cls-1" d="M75.15,167.2c0-3.32,0-6.64,0-10,0-1.67.19-1.77,1.86-1.65l.25,0c7.11.66,9.8,3.57,10,10.78a23.48,23.48,0,0,1-.35,4.1c-.79,5.43-4.9,8.7-10.38,8.37-1.06-.07-1.41-.48-1.4-1.48,0-3.4,0-6.8,0-10.19Z"/><path class="cls-1" d="M119.57,108.62a23.91,23.91,0,0,1-.7,7.35c-1,3.43-2.92,4.74-6.45,4.55a5.25,5.25,0,0,1-4.94-3.64,14.26,14.26,0,0,1-.84-4,32,32,0,0,1,.85-12.73A5.31,5.31,0,0,1,112.81,96a5.37,5.37,0,0,1,5.71,3.94A24,24,0,0,1,119.57,108.62Z"/><path class="cls-1" d="M129.81,168a23.19,23.19,0,0,1-.68,6.78c-1,3.52-3,4.88-6.63,4.62a5.12,5.12,0,0,1-4.66-3.31,14.31,14.31,0,0,1-.89-3.76,37.55,37.55,0,0,1,.28-11.59,11,11,0,0,1,.82-2.53,5.74,5.74,0,0,1,10.47.05,19.77,19.77,0,0,1,1.29,7.84Z"/><path class="cls-1" d="M191.53,167.29a24.26,24.26,0,0,1,1-8.38c1-2.72,2.71-4,5.42-4a5.22,5.22,0,0,1,5.45,3.61,19.07,19.07,0,0,1,1.14,5.93,29.28,29.28,0,0,1-.72,10.59c-1,3.64-3.49,5-7.22,4.34a5.38,5.38,0,0,1-4.3-4.12A26.18,26.18,0,0,1,191.53,167.29Z"/><path class="cls-1" d="M398,160q1.59,4.53,3.17,9.06c.28.81-.07,1.28-.89,1.29-1.77,0-3.54,0-5.31,0-.82,0-1.12-.53-.84-1.33l3.23-9Z"/><path class="cls-1" d="M313,105.32c-3.79,0-3.38.48-3.4-3.95,0-1,0-2,0-2.92s.44-1.52,1.46-1.51c1.7,0,3.41-.08,5.11,0a4.12,4.12,0,0,1,3.9,4.2,4.07,4.07,0,0,1-4.17,4.13C315.11,105.35,314.3,105.32,313,105.32Z"/><path class="cls-1" d="M475.06,224.62c-1.79,0-3.57,0-5.36,0s-2-.29-1.82-2c.31-2.73.68-5.46,1.17-8.17a43.06,43.06,0,0,1,.72-5c.25-.81.6-1.35,1.46-1.33,4.54.11,9.07-.31,13.61.26,5.24.66,6.68,4.37,5.62,9-1,4.23-4.06,6.61-9.56,7.19a54.15,54.15,0,0,1-5.84,0Z"/><path class="cls-1" d="M116.77,244.61a21.69,21.69,0,0,1-3.14-.23c-4.51-1-7.26-3.41-8.2-9-1.05-6.26.17-12.29,2.53-18s6.78-9.34,13.15-9.7,11.17,2.54,12.14,9.5a33.49,33.49,0,0,1-3.05,19.14C127.59,241.81,123.05,244.7,116.77,244.61Z"/><path class="cls-3" d="M287,547.37c.82.45.87,1.13,1.08,1.72q2.67,7.53,5.31,15.06c.16.46.32.92.44,1.39.27,1-.15,1.57-1.19,1.61s-1.94,0-2.91,0c-2.58,0-5.17,0-7.76,0-1.72,0-2.17-.53-1.64-2.06,2-5.79,4.16-11.54,6.26-17.29C286.65,547.67,286.81,547.57,287,547.37Z"/></g></g></svg>
