<svg xmlns="http://www.w3.org/2000/svg" xmlns:xlink="http://www.w3.org/1999/xlink" viewBox="0 0 803.78 827.85"><defs><style>.cls-1{fill:#e1e5e3;}.cls-2{fill:#004936;}.cls-3{fill:url(#Ikke-navngivet_forløb_80);}.cls-4{fill:url(#Ikke-navngivet_forløb_82);}</style><radialGradient id="Ikke-navngivet_forløb_80" cx="441.43" cy="372.79" r="307.58" gradientTransform="translate(1046.39 401.89) rotate(139.54) scale(1 1.11)" gradientUnits="userSpaceOnUse"><stop offset="0.47" stop-color="#004935"/><stop offset="1" stop-opacity="0.8"/></radialGradient><radialGradient id="Ikke-navngivet_forløb_82" cx="501.7" cy="249.41" r="79.4" gradientTransform="translate(572.82 -182.29) rotate(79.67) scale(1 0.85)" gradientUnits="userSpaceOnUse"><stop offset="0" stop-color="#fff" stop-opacity="0.8"/><stop offset="0.05" stop-color="#eaf0ee" stop-opacity="0.82"/><stop offset="0.24" stop-color="#a4beb7" stop-opacity="0.87"/><stop offset="0.42" stop-color="#699488" stop-opacity="0.92"/><stop offset="0.59" stop-color="#3b7364" stop-opacity="0.95"/><stop offset="0.75" stop-color="#1b5c4a" stop-opacity="0.98"/><stop offset="0.89" stop-color="#074e3a" stop-opacity="0.99"/><stop offset="1" stop-color="#004935"/></radialGradient></defs><g id="Lag_2" data-name="Lag 2"><g id="Lag_1-2" data-name="Lag 1"><rect class="cls-1" width="803.78" height="827.85"/><path class="cls-2" d="M595.09,413.92a194.36,194.36,0,0,1-2,27.68,190.32,190.32,0,0,1-6.6,29.36,193.09,193.09,0,0,1-184.43,136c-106.59,0-193-86.41-193-193a192.84,192.84,0,0,1,90-163.21,192.1,192.1,0,0,1,103-29.79C508.68,220.92,595.09,307.33,595.09,413.92Z"/><path class="cls-3" d="M594.69,413.92a194.36,194.36,0,0,1-2,27.68,190.32,190.32,0,0,1-6.6,29.36,193.09,193.09,0,0,1-184.43,136c-106.59,0-193-86.41-193-193a192.84,192.84,0,0,1,90-163.21,192.1,192.1,0,0,1,103-29.79C508.28,220.92,594.69,307.33,594.69,413.92Z"/><ellipse class="cls-4" cx="454.96" cy="349.17" rx="69.14" ry="82.05" transform="translate(-87.29 535.9) rotate(-56.51)"/></g></g></svg>
