<svg xmlns="http://www.w3.org/2000/svg" viewBox="0 0 803.78 827.85"><defs><style>.cls-1{fill:#dddfdf;}.cls-2{fill:#454444;}</style></defs><g id="Lag_2" data-name="Lag 2"><g id="Lag_1-2" data-name="Lag 1"><rect class="cls-1" width="803.78" height="827.85"/><path class="cls-2" d="M214.83,354.34h-1.31c0-.34-.08-.73-.11-1.15a5.47,5.47,0,0,0-.12-1,.93.93,0,0,0-.36-.53,2.22,2.22,0,0,0-.89-.32,10.87,10.87,0,0,0-1.7-.11h-2.42v7.36a5.55,5.55,0,0,0,.07,1.08.88.88,0,0,0,.33.58,1.59,1.59,0,0,0,.85.32,11.69,11.69,0,0,0,1.67.09v1h-8.58v-1a11.89,11.89,0,0,0,1.69-.09,1.71,1.71,0,0,0,.85-.3,1,1,0,0,0,.33-.58,8.1,8.1,0,0,0,.05-1.1V343.71a7.74,7.74,0,0,0-.05-1.07,1,1,0,0,0-.33-.58,1.73,1.73,0,0,0-.85-.32,10.58,10.58,0,0,0-1.69-.08v-1h16.53V346h-1.63c-.08-1.14-.16-2-.24-2.42a2.13,2.13,0,0,0-.47-1.15,1.8,1.8,0,0,0-1.08-.49,16,16,0,0,0-2.3-.13h-5.15v8.4h2.38a11.16,11.16,0,0,0,1.73-.1,1.55,1.55,0,0,0,.89-.38,1.52,1.52,0,0,0,.45-.89,10.35,10.35,0,0,0,.12-1.76h1.34Z"/><path class="cls-2" d="M226.73,361.28a7.14,7.14,0,0,1-3.2-1.93,7.89,7.89,0,0,1-1.72-3.35,23.33,23.33,0,0,1,0-10,7.87,7.87,0,0,1,1.71-3.38,6.91,6.91,0,0,1,3.19-1.9,20.51,20.51,0,0,1,9.93,0,6.91,6.91,0,0,1,3.19,1.9,7.87,7.87,0,0,1,1.71,3.35,19.93,19.93,0,0,1,.54,5,22.09,22.09,0,0,1-.49,5,7.67,7.67,0,0,1-1.65,3.34,6.82,6.82,0,0,1-3.16,1.93,17.94,17.94,0,0,1-5.11.62A16.85,16.85,0,0,1,226.73,361.28ZM228,342a5.62,5.62,0,0,0-2.3,2.13,8.76,8.76,0,0,0-1.09,3.06,23.44,23.44,0,0,0,0,7.66,8.71,8.71,0,0,0,1.09,3,5.67,5.67,0,0,0,2.3,2.15,8.8,8.8,0,0,0,7.29,0,5.75,5.75,0,0,0,2.3-2.13,8.78,8.78,0,0,0,1.09-3.05A21.69,21.69,0,0,0,239,351a21.25,21.25,0,0,0-.31-3.82,9.18,9.18,0,0,0-1.09-3.06,5.69,5.69,0,0,0-2.25-2.13,7.8,7.8,0,0,0-3.67-.77A7.63,7.63,0,0,0,228,342Z"/><path class="cls-2" d="M262.81,346h-1.52a20,20,0,0,0-.49-2.45,2.13,2.13,0,0,0-.8-1.15,3.7,3.7,0,0,0-1.63-.5,30.42,30.42,0,0,0-3.31-.12v16.78a4,4,0,0,0,.14,1.15,1.13,1.13,0,0,0,.46.61,1.81,1.81,0,0,0,.85.24h1.62v1h-8.88v-1h1.63a1.85,1.85,0,0,0,.85-.24,1.18,1.18,0,0,0,.46-.61,3.7,3.7,0,0,0,.13-1.15V341.75a32.18,32.18,0,0,0-3.26.12,3.8,3.8,0,0,0-1.67.52,2.14,2.14,0,0,0-.81,1.15,15.26,15.26,0,0,0-.49,2.42h-1.53v-5.35h18.25Z"/><path class="cls-2" d="M270.67,361.28a7.11,7.11,0,0,1-3.19-1.93,7.9,7.9,0,0,1-1.73-3.35,23.33,23.33,0,0,1,0-10,7.88,7.88,0,0,1,1.72-3.38,6.83,6.83,0,0,1,3.18-1.9,20.35,20.35,0,0,1,9.93,0,6.91,6.91,0,0,1,3.19,1.9,7.87,7.87,0,0,1,1.71,3.35,19.93,19.93,0,0,1,.54,5,21.53,21.53,0,0,1-.49,5,7.56,7.56,0,0,1-1.65,3.34,6.77,6.77,0,0,1-3.16,1.93,17.91,17.91,0,0,1-5.1.62A16.87,16.87,0,0,1,270.67,361.28ZM272,342a5.62,5.62,0,0,0-2.3,2.13,9.18,9.18,0,0,0-1.09,3.06,24,24,0,0,0,0,7.66,9.13,9.13,0,0,0,1.09,3,5.67,5.67,0,0,0,2.3,2.15,8.75,8.75,0,0,0,7.29,0,5.69,5.69,0,0,0,2.3-2.13,8.82,8.82,0,0,0,1.15-3.05A21.69,21.69,0,0,0,283,351a21.25,21.25,0,0,0-.31-3.82,8.87,8.87,0,0,0-1.15-3.06,5.64,5.64,0,0,0-2.23-2.13,9,9,0,0,0-7.31,0Z"/><path class="cls-2" d="M304,356.52a7.15,7.15,0,0,0-.08-1.22.88.88,0,0,0-.4-.56,2.21,2.21,0,0,0-1-.25c-.45,0-1.15-.07-2.18-.07v-1h8.76v1a7.64,7.64,0,0,0-1.35.15,1.35,1.35,0,0,0-.68.35,1.09,1.09,0,0,0-.28.59,6,6,0,0,0-.06,1v2.83a5,5,0,0,0,.12,1.22,27.07,27.07,0,0,1-8.28,1.33c-3.54,0-6.08-.87-7.6-2.64s-2.3-4.46-2.3-8.05.84-6.39,2.51-8.19,4.38-2.73,8.14-2.81a22,22,0,0,1,3.63.27,33.15,33.15,0,0,1,3.82.91v4.9H305a11.52,11.52,0,0,0-.45-2.6,3.07,3.07,0,0,0-.92-1.47,3.2,3.2,0,0,0-1.62-.7,15.84,15.84,0,0,0-2.67-.19,7.61,7.61,0,0,0-3.72.81,5.88,5.88,0,0,0-2.3,2.18,9.33,9.33,0,0,0-1.15,3.15,23.33,23.33,0,0,0,0,7.82,7.79,7.79,0,0,0,1.15,2.94,5.49,5.49,0,0,0,2.3,1.94,9,9,0,0,0,3.74.69,10,10,0,0,0,2.3-.29,8.67,8.67,0,0,0,2.29-.9Z"/><path class="cls-2" d="M315.76,358.56a6.52,6.52,0,0,0,.06,1.08.94.94,0,0,0,.34.57,1.56,1.56,0,0,0,.85.32,13.25,13.25,0,0,0,1.67.1v1H310.1v-1a13.69,13.69,0,0,0,1.69-.1,1.73,1.73,0,0,0,.85-.29.92.92,0,0,0,.32-.59,6.64,6.64,0,0,0,.06-1.09V343.61a6.52,6.52,0,0,0-.06-1.08.94.94,0,0,0-.32-.58,1.73,1.73,0,0,0-.85-.32,12,12,0,0,0-1.69-.09v-1h10a23.92,23.92,0,0,1,2.81.13,5.64,5.64,0,0,1,2,.6,3.13,3.13,0,0,1,1.32,1.42,5.9,5.9,0,0,1,.47,2.59,4.92,4.92,0,0,1-1.37,3.81,7.07,7.07,0,0,1-4,1.55l1,1.52,1.67,2.51c.64,1,1.2,1.81,1.67,2.5s.83,1.15,1.06,1.46l.19.24a6.61,6.61,0,0,0,1.15,1.27,2.77,2.77,0,0,0,1.55.47v1H325c-.63-1-1.31-2.1-2.05-3.25s-1.43-2.23-2.14-3.26-1.33-1.92-1.89-2.65a4.45,4.45,0,0,0-1.15-1.22,3.42,3.42,0,0,0-.9-.18h-1.33Zm0-8.51h1.46a20.13,20.13,0,0,0,2.61-.1,6.53,6.53,0,0,0,1.9-.52,3.32,3.32,0,0,0,1.4-1.3,4.65,4.65,0,0,0,.51-2.4,4.19,4.19,0,0,0-1-3.27,5.32,5.32,0,0,0-3.45-.86h-3.45Z"/><path class="cls-2" d="M342.76,340.62l6.43,16.7.06.14a9.19,9.19,0,0,0,.43,1.07,8.53,8.53,0,0,0,.61,1,3.24,3.24,0,0,0,1,.81,3,3,0,0,0,1.43.34v1h-8.36v-1.09H345a6,6,0,0,0,.85-.15,2.08,2.08,0,0,0,.78-.37.72.72,0,0,0,.32-.63,3.8,3.8,0,0,0-.35-1.37,2.88,2.88,0,0,1-.13-.31l-2-5.08h-7.3l-1.88,5.26a6.44,6.44,0,0,0-.2.72,4.2,4.2,0,0,0-.08.62,1,1,0,0,0,.68,1.15,6.1,6.1,0,0,0,1.85.23v1.09h-7.17v-1.09l.48-.07a3.39,3.39,0,0,0,1-.17,2.21,2.21,0,0,0,.78-.65,4.63,4.63,0,0,0,.53-.95l.74-1.69.23-.67,6.55-15.87ZM344,351.16l-3-7.8-3.35,8.11h6.51Z"/><path class="cls-2" d="M366.91,354.34h-1.34c0-.34-.08-.73-.12-1.15a4.69,4.69,0,0,0-.11-1,.9.9,0,0,0-.36-.53,2.26,2.26,0,0,0-.9-.32,10.71,10.71,0,0,0-1.7-.11H360v7.36a6.46,6.46,0,0,0,.06,1.08,1,1,0,0,0,.33.58,1.73,1.73,0,0,0,.85.32,11.83,11.83,0,0,0,1.68.09v1h-8.58v-1a11.89,11.89,0,0,0,1.69-.09,1.81,1.81,0,0,0,.85-.3,1,1,0,0,0,.33-.58,8.1,8.1,0,0,0,0-1.1V343.71a7.69,7.69,0,0,0,0-1.07,1,1,0,0,0-.32-.58,1.77,1.77,0,0,0-.85-.32,12,12,0,0,0-1.69-.08v-1h16.51V346h-1.61a24,24,0,0,0-.25-2.42,2.06,2.06,0,0,0-.47-1.15,1.8,1.8,0,0,0-1.08-.49,16,16,0,0,0-2.3-.13H360v8.4h2.37a11.29,11.29,0,0,0,1.74-.1,1.61,1.61,0,0,0,.9-.38,1.56,1.56,0,0,0,.43-.89,9.42,9.42,0,0,0,.13-1.76h1.33Z"/><path class="cls-2" d="M222.07,402.85a2.4,2.4,0,0,0,.52-.43q.42-.44,4.6-4.37l8.31-7.94L250.31,376a2.49,2.49,0,0,0,.29-1c0-.69-.45-1.15-1.33-1.23v-1.91c1.33.07,2.78.11,4.36.11l4.28.09c1.27-.07,2.69-.09,4.28-.09s3,0,4.28-.11v2.76a44,44,0,0,0-5.13.72,14.13,14.13,0,0,0-3.57,1.24,18.28,18.28,0,0,0-3.09,2q-1.52,1.14-4.28,3.65l-19.85,18.4q.84.94,7.6,8.05,12.54,13.4,19.29,20.06l.67.76a21.89,21.89,0,0,0,4.6,3.75,12,12,0,0,0,6,1.35v3.23c-1.2-.06-2.5-.1-3.9-.1s-2.78,0-4-.09-2.49.09-3.9.09-2.78,0-4,.1l-1.15-1.52A345.8,345.8,0,0,0,222,405.06v23.1c0,3,.6,4.81,1.8,5.51a5.91,5.91,0,0,0,2.52.76,45.31,45.31,0,0,0,4.8.19v3.23c-2-.06-4.18-.1-6.65-.1s-4.78,0-6.75-.09-4.18.09-6.65.09-4.79,0-6.75.1v-3.23a42.09,42.09,0,0,0,4.76-.19,6.43,6.43,0,0,0,2.56-.76c1.21-.7,1.81-2.53,1.81-5.51V381.6c0-3-.61-4.82-1.81-5.52a4.83,4.83,0,0,0-2.52-.81c-1.15-.09-2.71-.15-4.8-.15v-3.23c2,.07,4.22.11,6.75.11s4.69,0,6.65.09,4.21-.09,6.75-.09,4.69,0,6.65-.11v3.23c-3.8,0-6.27.34-7.41,1s-1.71,2.5-1.71,5.48Z"/><path class="cls-2" d="M310.55,372.05l20,52.23.18.47a29.05,29.05,0,0,0,1.38,3.32,18,18,0,0,0,1.91,3,10,10,0,0,0,3.08,2.56,9.28,9.28,0,0,0,4.47,1.05v3.23c-2-.07-4.12-.11-6.46-.11s-4.6,0-6.56-.09-4.15.09-6.56.09-4.6,0-6.55.11v-3.45a18.42,18.42,0,0,0,2.14-.09,17.13,17.13,0,0,0,2.65-.48,6.7,6.7,0,0,0,2.48-1.15,2.42,2.42,0,0,0,1-2,12.42,12.42,0,0,0-1.15-4.27,8,8,0,0,1-.38-1L316,409.61H293.16l-5.9,16.44c-.24.73-.45,1.47-.62,2.23a9.8,9.8,0,0,0-.23,2c0,1.83.69,3,2.09,3.45a18.62,18.62,0,0,0,5.8.71v3.45c-1.65-.07-3.52-.1-5.61-.1s-3.95,0-5.61-.09-3.52.09-5.6.09-4,0-5.61.1v-3.45c.31-.05.82-.12,1.52-.18a10.41,10.41,0,0,0,3.27-.57,6.32,6.32,0,0,0,2.4-2,12.62,12.62,0,0,0,1.66-3q1-2.23,2.3-5.28l.76-1.7,20.44-49.62Zm3.8,33-9.51-24.44L294.39,406H314.7Z"/><path class="cls-2" d="M363.48,428.13a21.18,21.18,0,0,0,.2,3.37,2.87,2.87,0,0,0,1,1.8,5.48,5.48,0,0,0,2.66,1,36.52,36.52,0,0,0,5.23.29v3.23q-2.94-.1-6.66-.1c-2.53,0-4.78,0-6.75-.1s-4.18.1-6.64.1-4.8,0-6.75.1v-3.2a37.16,37.16,0,0,0,5.27-.28,5.67,5.67,0,0,0,2.66-1,2.8,2.8,0,0,0,1-1.8,23.48,23.48,0,0,0,.19-3.45V381.56a22.46,22.46,0,0,0-.19-3.38,3,3,0,0,0-1-1.8,5.25,5.25,0,0,0-2.66-1,37.16,37.16,0,0,0-5.27-.29v-3.23c1.95.07,4.21.1,6.75.1s4.68,0,6.64.09c.76,0,2.76,0,6-.09q8.94-.1,12-.1a71.84,71.84,0,0,1,8.8.44,17,17,0,0,1,6.13,1.85,9.77,9.77,0,0,1,4.14,4.41,18.76,18.76,0,0,1,1.47,8.13q0,8-4.28,11.88t-12.54,4.85q.94,1.51,3.08,4.75l5.18,7.84q3,4.61,5.28,7.84c1.5,2.16,2.59,3.7,3.28,4.6l.56.76a22.2,22.2,0,0,0,3.81,3.94,8.89,8.89,0,0,0,4.85,1.47v3.23c-1-.06-2.16-.1-3.45-.1s-2.4,0-3.45-.09-2.15.09-3.45.09-2.51,0-3.52.1q-3-4.75-6.37-10.11T380,417.52q-3.27-4.86-5.93-8.27c-1.77-2.3-3-3.55-3.7-3.81a10.78,10.78,0,0,0-2.81-.56c-1-.07-2.37-.1-4.14-.1Zm0-26.62c.45.07.93.12,1.47.15s1.58,0,3.1,0c3.23,0,5.93-.11,8.12-.33a18,18,0,0,0,6-1.62,9.78,9.78,0,0,0,4.33-4,14.83,14.83,0,0,0,1.62-7.51q0-7.49-3.14-10.21t-10.74-2.71c-1.59,0-4,.07-7.13.18l-3.61.11Z"/><path class="cls-2" d="M408.72,434.39a35.73,35.73,0,0,0,5.27-.28,5.59,5.59,0,0,0,2.67-.95,3,3,0,0,0,1-1.8,22.1,22.1,0,0,0,.18-3.45V381.56a21.22,21.22,0,0,0-.18-3.38,3.18,3.18,0,0,0-1-1.8,5.29,5.29,0,0,0-2.67-1,37.16,37.16,0,0,0-5.27-.29v-3.23h51.6v16.77h-5v-.18c-.25-3.55-.51-6.07-.76-7.55a6.64,6.64,0,0,0-1.47-3.45,5.81,5.81,0,0,0-3.38-1.57,48.47,48.47,0,0,0-7.22-.39h-16.1v26.24h7.42a36.2,36.2,0,0,0,5.41-.29,5.46,5.46,0,0,0,2.81-1.15,5.13,5.13,0,0,0,1.38-2.8,31.77,31.77,0,0,0,.38-5.51h4.17v22.8h-4.17c-.14-1-.27-2.24-.38-3.7A19.09,19.09,0,0,0,443,408a2.77,2.77,0,0,0-1.15-1.65,6.6,6.6,0,0,0-2.79-1,31.55,31.55,0,0,0-5.32-.33h-7.42v28.6h17.11a25.68,25.68,0,0,0,5.93-.67,5.84,5.84,0,0,0,3.19-2,9.91,9.91,0,0,0,1.66-4.28c.35-1.86.71-4.63,1.1-8.31h5v19.38H408.72Z"/><path class="cls-2" d="M476.1,381.56q0-4.38-1.67-5.42c-1.15-.69-3.45-1.05-7.08-1.05v-3.23c1.15.07,2.58.1,4.09.1s2.89,0,4.08.09,2.57-.09,4.1-.09,2.78,0,4-.1l40.68,54.36V381.56q0-4.38-1.58-5.42c-1.05-.69-3.45-1.05-7.17-1.05v-3.23c1.58.07,3.39.1,5.41.1s3.84,0,5.42.09,3.39-.09,5.42-.09,3.83,0,5.42-.1v3.23a35.58,35.58,0,0,0-4.38.2,5.34,5.34,0,0,0-2.3.75,3,3,0,0,0-1.15,1.86,15,15,0,0,0-.33,3.66v56.06h-6.18l-42-55.49v46c0,2.9.54,4.71,1.62,5.41s3.45,1.05,7.13,1.05v3.23c-1.66-.07-3.45-.1-5.52-.1s-4,0-5.6-.1-3.45.1-5.52.1-4,0-5.61.1v-3.19c3.74,0,6.14-.35,7.18-1s1.57-2.51,1.57-5.42Z"/><path class="cls-2" d="M220.94,504.15a21.22,21.22,0,0,0,.18,3.38,2.93,2.93,0,0,0,1,1.8,5.43,5.43,0,0,0,2.66,1,33.78,33.78,0,0,0,5.22.29v3.23c-2,0-4.18-.09-6.64-.09s-4.8,0-6.75-.09-4.19.09-6.66.09-4.78,0-6.75.09v-3.23a35.8,35.8,0,0,0,5.28-.29,5.53,5.53,0,0,0,2.69-1,2.87,2.87,0,0,0,1-1.81,23.33,23.33,0,0,0,.2-3.45V457.62a22.34,22.34,0,0,0-.2-3.37,3,3,0,0,0-1-1.8,5.11,5.11,0,0,0-2.66-1,35.73,35.73,0,0,0-5.27-.28v-3.23c2,.05,4.22.09,6.75.09s4.69,0,6.65.09c.76,0,2.75,0,6-.09q8.94-.09,12-.09a73.87,73.87,0,0,1,8.8.42,17.85,17.85,0,0,1,6.13,1.85,9.66,9.66,0,0,1,4.12,4.43,18.52,18.52,0,0,1,1.48,8.12q0,8-4.28,11.89t-12.58,4.82q.94,1.53,3.09,4.75l5.18,7.84q3.06,4.6,5.27,7.85c1.48,2.16,2.58,3.69,3.28,4.59l.58.76a21.15,21.15,0,0,0,3.79,3.89,8.77,8.77,0,0,0,4.84,1.47v3.23c-1,0-2.15-.09-3.45-.09s-2.41,0-3.45-.09-2.15.09-3.45.09-2.49,0-3.45.09q-3-4.74-6.37-10.12c-2.3-3.57-4.51-7-6.7-10.21s-4.13-6-5.91-8.3-3-3.54-3.7-3.79a10.34,10.34,0,0,0-2.81-.58c-1,0-2.35-.09-4.12-.09Zm0-26.61c.43,0,.93.12,1.47.14s1.56,0,3.08,0a78.82,78.82,0,0,0,8.13-.33,18.36,18.36,0,0,0,6-1.61,9.81,9.81,0,0,0,4.32-4,14.77,14.77,0,0,0,1.62-7.5c0-5-1-8.42-3.14-10.23s-5.68-2.7-10.74-2.7c-1.58,0-4,.06-7.12.19l-3.61.09Z"/><path class="cls-2" d="M266.08,510.43a38.71,38.71,0,0,0,5.27-.29,5.77,5.77,0,0,0,2.66-.95,2.87,2.87,0,0,0,1-1.81,22.1,22.1,0,0,0,.18-3.45V457.62a21.09,21.09,0,0,0-.18-3.37,3,3,0,0,0-1-1.8,5.18,5.18,0,0,0-2.66-1,35.73,35.73,0,0,0-5.27-.28v-3.23h51.6v16.73h-5v-.2c-.25-3.54-.51-6.07-.76-7.55a6.64,6.64,0,0,0-1.47-3.45,5.77,5.77,0,0,0-3.38-1.59,49.84,49.84,0,0,0-7.22-.38h-16.1v26.23h7.42a39.07,39.07,0,0,0,5.41-.28,5.27,5.27,0,0,0,2.81-1.15,5,5,0,0,0,1.38-2.8,30.82,30.82,0,0,0,.38-5.51h4.18v22.81h-4.15c-.12-1-.25-2.3-.38-3.71a17.81,17.81,0,0,0-.33-3.09,2.91,2.91,0,0,0-1.15-1.66,7,7,0,0,0-2.81-1,32.64,32.64,0,0,0-5.32-.34h-7.4V509.6h17a25.82,25.82,0,0,0,5.94-.66,5.91,5.91,0,0,0,3.18-2,9.92,9.92,0,0,0,1.67-4.28c.34-1.87.71-4.64,1.09-8.31h5v19.38h-51.6Z"/><path class="cls-2" d="M325.65,510.61a35.8,35.8,0,0,0,5.28-.29,5.54,5.54,0,0,0,2.67-.94,2.9,2.9,0,0,0,1-1.8,22.18,22.18,0,0,0,.19-3.45V457.62a21.1,21.1,0,0,0-.19-3.37,3,3,0,0,0-1-1.8,5.18,5.18,0,0,0-2.67-1,35.8,35.8,0,0,0-5.28-.28v-3.23c2,.05,4.22.09,6.75.09s4.69,0,6.66.09,4.21-.09,6.75-.09,4.68,0,6.65-.09v3.23a35.73,35.73,0,0,0-5.27.28,5.69,5.69,0,0,0-2.67.95,2.89,2.89,0,0,0-1,1.8,22.17,22.17,0,0,0-.18,3.45v52.18h16.82a28.84,28.84,0,0,0,5.93-.62,5.5,5.5,0,0,0,3.19-2.05,10.27,10.27,0,0,0,1.66-4.37c.35-1.9.72-4.69,1.15-8.36h5v19.3H325.65Z"/><path class="cls-2" d="M416,476.68a54.23,54.23,0,0,1,6.79,2.81,24.16,24.16,0,0,1,5.23,3.56,15.09,15.09,0,0,1,3.66,5,16.68,16.68,0,0,1,1.33,6.9,19.17,19.17,0,0,1-2.14,9.45,16.05,16.05,0,0,1-5.74,6,25.88,25.88,0,0,1-8.23,3.14,48.64,48.64,0,0,1-9.93.94,56.81,56.81,0,0,1-10.65-1,45,45,0,0,1-9.88-3.1V493.23h6.4c.07.88.16,2.22.29,4a43,43,0,0,0,.62,6,10.26,10.26,0,0,0,1.8,4.08,8.65,8.65,0,0,0,4.42,2.94,26.25,26.25,0,0,0,8.27,1,19.52,19.52,0,0,0,11.6-3.32q4.65-3.33,4.65-10a11.84,11.84,0,0,0-1.38-5.89,12.54,12.54,0,0,0-3.61-4.09,24.67,24.67,0,0,0-4.8-2.71c-1.72-.73-3.83-1.5-6.37-2.3l-2.3-.75c-2.78-1-5.11-1.95-6.9-2.81a22.13,22.13,0,0,1-5-3.19,13.44,13.44,0,0,1-3.61-4.7,15.55,15.55,0,0,1-1.33-6.79,17.76,17.76,0,0,1,1.71-8.05,15.41,15.41,0,0,1,4.75-5.75,21,21,0,0,1,6.9-3.32,30,30,0,0,1,8.27-1.15,53.39,53.39,0,0,1,9.69.86,56.71,56.71,0,0,1,9.89,2.76v15.58h-5.33c-.12-.82-.21-1.84-.28-3a49.88,49.88,0,0,0-.66-5.18,8.62,8.62,0,0,0-1.71-3.66,8.92,8.92,0,0,0-4-2.71,21.57,21.57,0,0,0-7.18-1,16.19,16.19,0,0,0-9.93,2.85q-3.86,2.85-3.85,8.83a11,11,0,0,0,1.9,6.66,13.32,13.32,0,0,0,5.75,4.18Z"/><path class="cls-2" d="M498.66,464.8H493.9a64.29,64.29,0,0,0-1.57-7.64,6.28,6.28,0,0,0-2.47-3.52,11.43,11.43,0,0,0-5.08-1.56,99.25,99.25,0,0,0-10.35-.38v52.45a12.23,12.23,0,0,0,.43,3.66,3.43,3.43,0,0,0,1.42,1.9,6,6,0,0,0,2.67.76c1.15.09,2.81.14,5.08.14v3.23c-2.15,0-4.47-.09-6.9-.09l-6.89-.09-6.9.09q-3.7,0-6.9.09v-3.23a48.24,48.24,0,0,0,5.08-.14,6,6,0,0,0,2.67-.76,3.43,3.43,0,0,0,1.42-1.9,11.92,11.92,0,0,0,.43-3.66V451.7a99.34,99.34,0,0,0-10.21.38,11.64,11.64,0,0,0-5.19,1.61,6.67,6.67,0,0,0-2.56,3.56,49.86,49.86,0,0,0-1.52,7.56H441.8V448.08h56.86Z"/><path class="cls-2" d="M503.26,510.43a38.47,38.47,0,0,0,5.26-.29,5.55,5.55,0,0,0,2.67-.95,2.87,2.87,0,0,0,1-1.81,22.1,22.1,0,0,0,.18-3.45V457.62a21.09,21.09,0,0,0-.18-3.37,3,3,0,0,0-1-1.8,5.18,5.18,0,0,0-2.67-1,35.53,35.53,0,0,0-5.26-.28v-3.23h51.62v16.73h-5v-.2c-.25-3.54-.5-6.07-.75-7.55a6.65,6.65,0,0,0-1.48-3.45,5.75,5.75,0,0,0-3.38-1.57,49.69,49.69,0,0,0-7.22-.38H520.92v26.23h7.41a39.29,39.29,0,0,0,5.42-.28,5.27,5.27,0,0,0,2.8-1.15,4.85,4.85,0,0,0,1.38-2.8,29.92,29.92,0,0,0,.38-5.51h4.18v22.81h-4.18c-.12-1-.25-2.3-.38-3.71a19.74,19.74,0,0,0-.33-3.08,2.9,2.9,0,0,0-1.15-1.67,7,7,0,0,0-2.81-1,32.63,32.63,0,0,0-5.32-.33h-7.41v28.6h17a25.13,25.13,0,0,0,5.93-.65,6,6,0,0,0,3.19-2.05,10.05,10.05,0,0,0,1.67-4.28q.51-2.81,1.09-8.31h5v19.39H503.26Z"/><path class="cls-2" d="M579.39,504.15a21.23,21.23,0,0,0,.2,3.38,2.91,2.91,0,0,0,1,1.8,5.47,5.47,0,0,0,2.66,1,35.13,35.13,0,0,0,5.23.29v3.23c-2,0-4.18-.09-6.64-.09s-4.8,0-6.75-.09-4.19.09-6.66.09-4.78,0-6.75.09v-3.23a35.88,35.88,0,0,0,5.28-.29,5.5,5.5,0,0,0,2.65-.94,2.82,2.82,0,0,0,1-1.8,22.19,22.19,0,0,0,.2-3.45V457.62a21.11,21.11,0,0,0-.2-3.37,2.91,2.91,0,0,0-1-1.8,5.11,5.11,0,0,0-2.65-1,35.87,35.87,0,0,0-5.28-.28v-3.23c2,.05,4.22.09,6.75.09s4.69,0,6.66.09c.76,0,2.75,0,6-.09q8.92-.09,12-.09a73.63,73.63,0,0,1,8.78.42A17.9,17.9,0,0,1,608,450.2a9.74,9.74,0,0,1,4.13,4.43,18.52,18.52,0,0,1,1.47,8.12q0,8-4.28,11.89t-12.54,4.82q.94,1.53,3.09,4.75l5.18,7.84q3,4.6,5.27,7.85c1.5,2.16,2.58,3.67,3.28,4.59l.57.76a21.87,21.87,0,0,0,3.8,3.95,8.89,8.89,0,0,0,4.85,1.47v3.23c-1,0-2.15-.09-3.45-.09s-2.4,0-3.45-.09-2.15.09-3.45.09-2.5,0-3.52.09q-2.93-4.74-6.35-10.12c-2.3-3.57-4.52-7-6.71-10.21s-4.11-6.06-5.86-8.36-3-3.54-3.7-3.79a10.42,10.42,0,0,0-2.81-.58c-1,0-2.36-.09-4.14-.09Zm0-26.61c.45,0,1,.12,1.49.14s1.56,0,3.08,0a78.93,78.93,0,0,0,8.13-.33,18.36,18.36,0,0,0,6-1.61,9.86,9.86,0,0,0,4.32-4,14.77,14.77,0,0,0,1.61-7.5c0-5-1-8.42-3.13-10.23s-5.68-2.7-10.74-2.7q-2.37,0-7.13.19l-3.62.09Z"/></g></g></svg>
