<svg xmlns="http://www.w3.org/2000/svg" xmlns:xlink="http://www.w3.org/1999/xlink" viewBox="0 0 386 386"><defs><style>.cls-1{fill:#c71c1c;}.cls-2{fill:url(#Ikke-navngivet_forløb_5);}.cls-3{fill:url(#Ikke-navngivet_forløb_3);}</style><radialGradient id="Ikke-navngivet_forløb_5" cx="232.75" cy="151.87" r="307.58" gradientTransform="translate(519.46 129.39) rotate(139.54) scale(1 1.11)" gradientUnits="userSpaceOnUse"><stop offset="0.47" stop-color="#c71c1c"/><stop offset="1" stop-opacity="0.8"/></radialGradient><radialGradient id="Ikke-navngivet_forløb_3" cx="389.99" cy="159.13" r="79.4" gradientTransform="matrix(0.18, 0.98, -0.83, 0.15, 283.78, -279.59)" gradientUnits="userSpaceOnUse"><stop offset="0" stop-color="#fff" stop-opacity="0.8"/><stop offset="0.17" stop-color="#f0c4c4" stop-opacity="0.85"/><stop offset="0.36" stop-color="#e28888" stop-opacity="0.9"/><stop offset="0.55" stop-color="#d65959" stop-opacity="0.95"/><stop offset="0.72" stop-color="#ce3838" stop-opacity="0.98"/><stop offset="0.88" stop-color="#c92323" stop-opacity="0.99"/><stop offset="1" stop-color="#c71c1c"/></radialGradient></defs><g id="Lag_2" data-name="Lag 2"><g id="Lag_1-2" data-name="Lag 1"><path class="cls-1" d="M386,193a194.36,194.36,0,0,1-2,27.68,190.32,190.32,0,0,1-6.6,29.36A193.09,193.09,0,0,1,193,386C86.41,386,0,299.59,0,193A192.84,192.84,0,0,1,90,29.79,192.1,192.1,0,0,1,193,0C299.59,0,386,86.41,386,193Z"/><path class="cls-2" d="M386,193a194.36,194.36,0,0,1-2,27.68,190.32,190.32,0,0,1-6.6,29.36A193.09,193.09,0,0,1,193,386C86.41,386,0,299.59,0,193A192.84,192.84,0,0,1,90,29.79,192.1,192.1,0,0,1,193,0C299.59,0,386,86.41,386,193Z"/><ellipse class="cls-3" cx="221.13" cy="128.24" rx="69.14" ry="82.05" transform="translate(-7.85 241.88) rotate(-56.51)"/></g></g></svg>
