<svg xmlns="http://www.w3.org/2000/svg" viewBox="0 0 803.78 827.85"><defs><style>.cls-1{fill:#c71c1c;}.cls-2{fill:#e8e2e2;}.cls-3{fill:#101411;}</style></defs><g id="Lag_2" data-name="Lag 2"><g id="Lag_1-2" data-name="Lag 1"><rect class="cls-1" width="803.78" height="827.85"/><path class="cls-2" d="M171.83,355.37c2.1-2.94,3.46-4.87,4.1-5.81.24.15.61.39,1.1.75s.8.41,1.05.56q3-4.1,3.32-4.55a6.5,6.5,0,0,1,2.55-2.13,19.72,19.72,0,0,1,16.79.65l9.59,4.52c.16-.36,1.17-2.45,3-6.3,1.23.52,2.4,1,3.53,1.45q1.35-2.82,8.82-18.31l-10.59-4.92q-19.71-8.7-38.49,2.26c-.77.47-1.88,1.26-3.29,2.34a34.68,34.68,0,0,1-3.23,2.36q-8.58,5.19-15.13,15.86,5.09,3.56,15.16,10.67a3.56,3.56,0,0,1-.15.39l-9.16-1.43-.81,5.19-4.86-.76L152,378.66l48.24,7.5q-8.28,3.78-15.22,2.78l-26.86-4.19-2-.31-.81,5.27-4.95-.77-3.18,20.4,27.67,4.31a36.87,36.87,0,0,0,21.51-2.86q.69-.37,11.39-6.63,17.81-10.46,24.53-31.13c0-.26.68-2.91,1.89-7.95Zm-6.62-16.71a38.81,38.81,0,0,1,21.9-16.91q16.19-4.92,34.92,5.91c-3.31,6.89-5.43,11.33-6.4,13.31l-9.46-4.26a22.85,22.85,0,0,0-27.29,8.49c-.06,0-.57.7-1.53,2C175.25,345.7,171.19,342.86,165.21,338.66ZM219,391.45q-11.21,12.72-26.13,15.28a34.3,34.3,0,0,1-11.53.09L156,402.88l2.39-15.38,1.59.25,23.21,3.61q11.37,1.93,22.44-5.16c.24-.18,3-2.12,8.41-5.79l-53.26-8.3,2.37-15.23L231,367.45A53.57,53.57,0,0,1,219,391.45Z"/><path class="cls-2" d="M342.22,390.26q-1.68-2.7-4.75-7.75-3-5.22-4.49-7.66c-2,1.1-6.92,3.88-14.72,8.31q.53-1.23,19.28-52.72l-17-6.15q-1.67,4.33-2.26,6c-.48-.13-1.05-.31-1.74-.52s-1.35-.47-1.66-.6q-3.75,10.35-6.54,18.17-11.76,32.13-17.09,46.57a2,2,0,0,1-.89,1.24q-8.08,2.46-13.26,1.21c-1.06-.23-1.48-.76-1.27-1.61,1.8-6.47,2.84-10.05,3.13-10.83l0,0q.39-.75,11.1-24.59,4.18-9.35,3.59-16.35a16.45,16.45,0,0,0-3.3-8.7,14.87,14.87,0,0,0-7.41-5.42c-4.48-1.5-9.25-.67-14.31,2.44q-6.74,4.07-15.41,13-.78.69-10.36,12.17,2.16,1.6,7.57,5.44c3.14,2.25,5.57,4,7.33,5.25q1.41-1.75,4.27-5.78a9.37,9.37,0,0,0,1.4.82c2.06-2.71,3.54-4.7,4.44-5.93a1.25,1.25,0,0,1,0,.74q-8.78,18.89-9.25,20-5.9,13.19-6.39,23.18-.33,7.33,2.54,11.73,5.66,8.47,17.29,10a20.91,20.91,0,0,0,9.7-1.29c-.26.73-.62,1.68-1.08,2.84s-.84,2.2-1,2.68c7.38,2.53,13.05,4.48,17,5.81q2.12-5.7,2.17-5.92c1.39.41,2.52.73,3.43,1l.48-1.27q4.34-11.83,5.22-14.13a3.14,3.14,0,0,1,1.4-1.59Q320.69,403.8,335.2,396c1.07-.59,1.35-1.27.87-2.06.84-.48,1.88-1.12,3.12-1.89C340.82,391.11,341.83,390.51,342.22,390.26Zm-13.92,5q-3.68,1.93-9.94,4.92-7.69,3.78-10,4.9a2.85,2.85,0,0,0-1.4,1.54q-1,2.67-5.62,15.39c0,.05-.2.57-.59,1.57l-11.86-4c1-2.63,2-5.2,3-7.72-5.09,1.33-7.7,2-7.81,2.07q-10,2.4-18.74-5.21c-3.41-3-5-7.23-4.81-12.77q.38-9.53,5.81-21.85,1.81-4,5.41-11.93c2.4-5.29,4.2-9.26,5.4-11.94a37.25,37.25,0,0,0,1.65-6.68q-7.75,3.71-15.95,15-8.19-5.88-10.25-7.4c1.7-2.31,2.6-3.52,2.66-3.63q8.11-10.37,16.33-14.67c4.14-2.21,7.94-2.57,11.4-1.11q7.46,3.31,8.15,12.42c.24,3.7-1.1,8.77-4,15.27-.83,1.84-2.56,5.59-5.2,11.3q-3.21,7-5,11.3-3.44,7.86-3.71,13.5a2.94,2.94,0,0,0,2.29,3.23q6.33,1.8,15-.71c2.1-.61,4.06-1.29,5.88-2a2.45,2.45,0,0,0,1.39-1.38q4.94-13.41,16.4-44.83c.66-1.84,1.88-5.22,3.67-10.11q2.36-6.39,3.67-10.18l.76-1.73q2,.69,5.91,2.17t5.92,2.17q-3.25,9.07-10.18,28-6.72,18.39-10.2,28a1.56,1.56,0,0,1,.24.4q6.28-3.45,18.18-9.85c1.22,2.07,3.37,5.69,6.48,10.87C332.17,393.12,328.74,395.05,328.3,395.24Z"/><path class="cls-3" d="M338.55,389.46c-6.38,3.66-9.81,5.59-10.25,5.78q-3.68,1.93-9.94,4.92-7.69,3.78-10,4.9a2.85,2.85,0,0,0-1.4,1.54q-1,2.67-5.62,15.39c0,.05-.2.57-.59,1.57l-11.86-4c1-2.63,2-5.2,3-7.72-5.09,1.33-7.7,2-7.81,2.07q-10,2.4-18.74-5.21c-3.41-3-5-7.23-4.81-12.77q.38-9.53,5.81-21.85,1.81-4,5.41-11.93c2.4-5.29,4.2-9.26,5.4-11.94a37.25,37.25,0,0,0,1.65-6.68q-7.75,3.71-15.95,15-8.19-5.88-10.25-7.4c1.7-2.31,2.6-3.52,2.66-3.63q8.11-10.37,16.33-14.67c4.14-2.21,7.94-2.57,11.4-1.11q7.46,3.31,8.15,12.42c.24,3.7-1.1,8.77-4,15.27-.83,1.84-2.56,5.59-5.2,11.3q-3.21,7-5,11.3-3.44,7.86-3.71,13.5a2.94,2.94,0,0,0,2.29,3.23q6.33,1.8,15-.71c2.1-.61,4.06-1.29,5.88-2a2.45,2.45,0,0,0,1.39-1.38q4.94-13.41,16.4-44.83c.66-1.84,1.88-5.22,3.67-10.11q2.36-6.39,3.67-10.18l.76-1.73q2,.69,5.91,2.17t5.92,2.17q-3.25,9.07-10.18,28-6.72,18.39-10.2,28a1.56,1.56,0,0,1,.24.4q6.28-3.45,18.18-9.85C333.29,380.66,335.44,384.28,338.55,389.46Z"/><path class="cls-2" d="M377.08,372.58c1.55-3.26,2.55-5.41,3-6.45.26.11.68.29,1.22.55s.87.28,1.14.37l2.47-5.05a6.42,6.42,0,0,1,2.12-2.55,19.73,19.73,0,0,1,16.67-2.29c.75.2,4.17,1.12,10.22,2.77.1-.38.73-2.62,1.88-6.74,1.29.29,2.53.56,3.73.81q.82-3,5.46-19.57l-11.27-3q-20.94-5.15-37.5,8.94c-.69.62-1.64,1.57-2.85,2.89a31.46,31.46,0,0,1-2.76,2.88q-7.51,6.63-12.11,18.25l16.79,7.88a3.54,3.54,0,0,1-.08.41l-9.28.19.12,5.25-4.91.11L361.6,399l48.79-1q-7.47,5.16-14.49,5.4l-27.19.57-2,0,.12,5.34-5,.1.44,20.65,28-.6a36.94,36.94,0,0,0,20.69-6.57c.42-.34,3.77-3.17,10.06-8.53q15.69-13.4,18.7-34.94,0-.39.48-8.15Zm-9.43-15.3a38.83,38.83,0,0,1,18.6-20.49q15.11-7.67,35.42-.28-3.06,11.06-4,14.21l-10.07-2.52a22.88,22.88,0,0,0-25.37,13.13c-.06.05-.44.79-1.16,2.2Q377.58,361.91,367.65,357.28Zm62.15,42.59q-8.81,14.44-23.06,19.6a35.08,35.08,0,0,1-11.34,2.11l-25.57.54-.33-15.56,1.61,0,23.47-.51q11.55-.08,21.2-9,.32-.33,7.27-7.18L369.17,391l-.32-15.41,68.64-1.47A53.65,53.65,0,0,1,429.8,399.87Z"/><path class="cls-2" d="M561.05,410.64l-2.33-20.45-1.62.11-9.38,1.06a5.65,5.65,0,0,1-5.23-1.76,12.11,12.11,0,0,1-2.77-7.89L554.64,380c-.27-.45-.75-1.27-1.42-2.44-.6-1-1.1-1.83-1.49-2.43l7.45-.85c-.29-.71-.46-1.07-.53-1.07Q552,362.72,550.36,358a4.78,4.78,0,0,0-.28-1l6.89-.78c0-.33-.08-.48-.13-.48q-6.11-11.47-8.55-15.83a1.32,1.32,0,0,0-1.45-.65c-.76,0-3.21.29-7.38.76l-4.58.52L532,315l-20.53,2.33.57,5.05-5.13.59,2.34,20.43-18.12,2.07-2.9-25.5-20.53,2.33.59,5.06-5.22.6,2.34,20.6-10.25,1.16.58,5.21-5.05.58,2.05,18,5.06-.57.28,2.49-5.05.57,1.75,15.4,15.31-1.75c.5,4.44.76,6.87.76,7.31a2.19,2.19,0,0,1-1.67,2.54,42,42,0,0,1-4.08,1.2l-6.66.75.6,5.21-5,.57,2.34,20.52,13.22-1.51a25.09,25.09,0,0,0,16.79-8.73,18.81,18.81,0,0,0,1.62-2.21c.7-.95,1.28-1.66,1.7-2.14q8.81-9.14,6.73-20.83,0-.24-.62-5.53l18.11-2.05c.6,5.24,1,8.06,1.05,8.49q1,7.83,1.47,9.33,3.4,12.11,14.24,15.26a15.59,15.59,0,0,0,5.43.69q2.82-.24,20.54-2.26l-.58-5.14Zm-29.4-2.83a18,18,0,0,1-7.2-9,43.61,43.61,0,0,1-2.14-8.77q-.21-1.2-1.63-13.7l-28.22,3.21.65,5.69q1.18,11.07,1.11,11.89a19.93,19.93,0,0,1-4.73,12.65,20.78,20.78,0,0,1-11.43,7.38q-.8.18-15,1.79l-1.72-15.16,4.81-.54a13.67,13.67,0,0,0,8.2-4.27,11,11,0,0,0,3.56-8q0-.57-1-9.79L461.59,383l-1.17-10.35,15.3-1.74-.87-7.69-15.23,1.73L458.15,352l15.31-1.73-2.93-25.74,15.4-1.74,2.89,25.48,28.3-3.21-2.9-25.5,15.56-1.77,2.92,25.66,1.68-.19L545.2,342a1.6,1.6,0,0,1,1.61.63c.88,1.58,3,5.44,6.27,11.55l-18.76,2.14.88,7.69,1.6-.18,10.75-1.22a2,2,0,0,1,2.05.9c.48.87,2.26,3.78,5.37,8.72l-19,2.17q2.31,12.65,2.6,13.59c1.37,4.5,4.66,6.45,9.83,5.86l8.11-.92,1.76,15.48-1.68.18c-8.29.95-12.65,1.44-13.08,1.5A16.9,16.9,0,0,1,531.65,407.81Zm-41.16-46.4.86,7.63,28.06-3.2-.87-7.61Zm28-3.18-28,3.18.86,7.63,28.06-3.2Zm0,0-28,3.18.86,7.63,28.06-3.2Z"/><path class="cls-2" d="M622.17,399.37l-3.91-20.19-10.53,2-9.88-50.93,8.54-1.67-1-5,2-.55L603.49,303l-43,8.34.94,4.91c-.68.18-1.32.4-1.93.62l3.92,20.2,12.75-2.47L586,385.51l-10.78,2.08,1,5c-1,.29-1.67.48-2,.56l3.9,20.11,43.09-8.36-1-5A20.07,20.07,0,0,0,622.17,399.37Zm-37.48,5.55-2.92-15.13,10.69-2.08L580.6,326.56l-10.69,2.08L567,313.51l33.89-6.57,2.94,15.12-9.43,1.83L606.22,385l9.44-1.82,2.94,15.21Z"/><path class="cls-2" d="M152.88,480.58q2.48-3.31,3.23-4.35a9.69,9.69,0,0,1,.84.58l.79.46c1.58-2.06,2.46-3.2,2.62-3.42a5,5,0,0,1,2-1.58,15,15,0,0,1,12.82.8c.54.26,2.95,1.46,7.24,3.62.13-.28,1-1.86,2.43-4.77.92.41,1.81.81,2.66,1.17q1.08-2.11,7.07-13.82l-8-3.94q-14.91-7-29.43,1a26.82,26.82,0,0,0-2.57,1.73,25.82,25.82,0,0,1-2.51,1.73,35.53,35.53,0,0,0-11.84,11.84l11.4,8.43a2.83,2.83,0,0,1-.12.3l-7-1.25-.71,3.94-3.69-.67L137.29,498,174,504.6a20.85,20.85,0,0,1-11.66,1.86l-20.45-3.68-1.52-.27-.72,4-3.75-.68-2.8,15.53,21.06,3.78a28.32,28.32,0,0,0,16.47-1.78q.56-.29,8.82-4.87,13.78-7.68,19.29-23.34.06-.3,1.59-6Zm-4.76-12.87a29.63,29.63,0,0,1,17-12.53q12.45-3.46,26.56,5.14l-5.12,10L179.44,467a17.48,17.48,0,0,0-21,6s-.45.52-1.2,1.48Q154.88,472.66,148.12,467.71ZM188.23,509q-8.78,9.5-20.24,11.19a26.52,26.52,0,0,1-8.79-.14L140,516.59l2.11-11.71,1.21.22,17.65,3.17q8.65,1.68,17.23-3.53c.19-.14,2.36-1.56,6.54-4.28l-40.52-7.29,2.08-11.59,51.62,9.28A41,41,0,0,1,188.23,509Z"/><path class="cls-2" d="M219.24,455.1l-.42,3.85-3.85-.41-5.72,52c-.52,4.77-.82,7.49-.9,8.14a1.24,1.24,0,0,1-1.06,1.25l-3,.72q2.14,8.69,3.31,13.33c2.37-.57,7.13-1.66,14.25-3.28q8.83-2.06,14.18-3.27c-.15-.55-.28-1.19-.4-1.91l6.78-1.43c-1.7-6.67-2.85-11.14-3.42-13.39L229,513l.76-6.92,47.17,5.17.46-4.1,5.82.64,4.95-45.09Zm62.16,50.6-53-5.83-1.74,15.74c4.71-1.05,8.34-1.88,10.88-2.46q.6,2.36,2.44,9.38l-13.2,2.71c-6.65,1.42-11,2.34-13.19,2.77-.28-1.19-.67-2.76-1.16-4.72-.57-2.25-1-3.81-1.16-4.65l.39-.15a14.85,14.85,0,0,0,2.62-.82,10.65,10.65,0,0,0,.52-3q2-18.55,6.12-55.81l.16-1.46,64.88,7.11Zm-50.19-31.5,43.2,4.75.63-5.76-43.19-4.75Zm-1.72,15.69,43.2,4.74.63-5.7-43.2-4.73Zm2.36-21.45-.64,5.76,43.2,4.75.63-5.76Zm-2.36,21.45,43.2,4.74.63-5.7-43.2-4.73Zm.63-5.69-.63,5.69,43.2,4.74.63-5.7Zm1.73-15.76-.64,5.76,43.2,4.75.63-5.76Z"/><path class="cls-2" d="M300.48,464.9l-.18,3.81a15.07,15.07,0,0,0-1.55.11l-.79,15.7,9.91.49-2,39.59-8.37-.43-.2,3.88c-.79,0-1.32.05-1.6,0l-.78,15.63,33.48,1.7.2-3.88a13.23,13.23,0,0,0,1.53-.06l.8-15.7-8.18-.4,2-39.58,6.64.33.2-3.88,1.55,0,.78-15.63Zm30.19,15.88-7.33-.36L321,527.88l7.33.37-.6,11.82-26.35-1.33.6-11.76,8.3.43,2.39-47.53-8.31-.41.59-11.76L331.26,469Z"/><path class="cls-2" d="M407.55,515.48c-3.33-1.55-5.86-2.72-7.59-3.49-3,3.13-4.56,4.81-4.72,5q-2.52,3.21-8.65,11.62a2,2,0,0,1-1.72.93l-13.08,0-1.29-.12-.21-58.54-17.76.07a8.51,8.51,0,0,1,0,.92c0,.45-.05.76-.05.92h-3.78l.3,76.62h1.48q33.58-.15,39.81,0c2.63,0,4.38-1,5.29-3a13.93,13.93,0,0,1,1-1.06,6.4,6.4,0,0,1,1.09-.85q4.17-5.94,11.91-17.18c.41-.59,2.33-3.36,5.75-8.35Zm-.14,11.4q-7.43,10.75-11,15.82a1.33,1.33,0,0,1-1.18.68q-12.56.06-39.86.14s-.23,0-.56,0l-.27-70.58,13.69,0,.21,58.73h1.06q13.94-.06,17.19,0a2,2,0,0,0,1.6-.81q2.26-3.15,11.2-15.1s.29-.42.88-1.22c1.44.66,3.39,1.55,5.86,2.7,2.93,1.34,4.92,2.23,6,2.69Q407.54,526.76,407.41,526.88Z"/><path class="cls-2" d="M486.26,510.91c-3.43-1.34-6-2.32-7.81-3-2.77,3.33-4.24,5.09-4.39,5.32q-2.3,3.36-7.86,12.16a1.91,1.91,0,0,1-1.65,1l-13,.92-1.29,0-4.08-58.41-17.71,1.24a8.84,8.84,0,0,1,0,.92c0,.45,0,.77,0,.93l-3.76.25L430,548.68l1.46-.11q33.51-2.33,39.74-2.63,3.91-.29,5.07-3.32a10.13,10.13,0,0,1,1-1.12,7.35,7.35,0,0,1,1-1c2.52-4.13,6.09-10.09,10.76-17.91.36-.62,2.11-3.51,5.2-8.71C492.52,513.27,489.86,512.25,486.26,510.91Zm.61,11.38q-6.69,11.22-9.91,16.5a1.31,1.31,0,0,1-1.11.76l-39.79,2.79-.56,0-4.91-70.4,13.66-1,4.08,58.59,1.05-.08c9.26-.63,15-1,17.15-1.13a1.91,1.91,0,0,0,1.55-.9q2.06-3.3,10.17-15.81l.8-1.28,6,2.3c3,1.15,5.05,1.91,6.16,2.3C488.41,519.76,486.94,522.2,486.87,522.29Z"/><path class="cls-2" d="M571.82,519.22l3.78-.51L573,499.4c-.73.15-2,.39-3.82.72-1.62.3-2.87.56-3.75.76l-.57-4.09,3.85-.53-3-22.17,3.85-.52L567,455.69l-35.24,6.51L530.22,451l-13.44,1.86.54,3.9-4,.55,1.26,9.09c-1.22.25-3.79.81-7.73,1.69l.53,3.84-4,.55,1.9,13.86,11.67-1.6.49,3.53c-1,.23-2.23.5-3.75.83-2.14.46-3.42.74-3.86.85l.51,3.65c-2.07.38-3.39.62-3.95.74l1.65,12c5.19-.59,9.08-1,11.71-1.29l.69,5.06c-.88.21-3.41.76-7.61,1.68l.53,3.84-4,.55,2.11,15.32,11.84-1.62,1.28,9.34q8.4-1.47,17.74-3.13c-.12-.27-.37-.88-.74-1.83-.31-.7-.55-1.29-.75-1.76,2.35-.45,4-.74,4.85-.92-.2-.58-.52-1.36-.93-2.29-.44-1.1-.76-1.86-.93-2.3l28.44-3.91ZM543,530.14c-2,.36-6.43,1.15-13.35,2.35l-1.27-9.23-11.66,1.6-1.59-11.47c1.22-.3,5-1.11,11.49-2.46l-1.7-12.39-11.75,1.06-1.1-8.13L523.61,489l-1.48-10.75-11.6,1.6-1.4-10.19,5.68-1.16c2.59-.56,4.52-1,5.81-1.24l-1.73-12.57,9.65-1.34,1.55,11.24q6.1-1.16,17.64-3.29c8-1.52,13.82-2.61,17.6-3.29l1.92,14-34.81,4.78,1.26,9.16q4.26-.76,15.35-2.8,9.66-1.69,15.3-2.72l2,14.22-30.48,3.2,1.45,10.51q15.19-3,34-6.62L573.44,517l-34.06,4.68Zm19.13-51.46v.07q-3.69.69-13.29,2.38c-5.66,1-10.14,1.85-13.41,2.47l-.17-1.23Zm-.09,22.84Q549.56,504,539,506l-.34-2.38,23.31-2.4Z"/><path class="cls-2" d="M678.45,500.48a1,1,0,0,0,0-.22,1.59,1.59,0,0,0-.13-.6,4.85,4.85,0,0,1-.2-.66,28.58,28.58,0,0,0-.73-3.41s-.19-1.24-.7-3.72a5.16,5.16,0,0,0-1.84-3.31,31.85,31.85,0,0,1-17.59-1.14,34.94,34.94,0,0,1-14.8-10.1l21.88-4.72-.83-3.86,3.67-.79-2.94-13.62-28.92,6.25L630,436.12l-13.62,2.93.84,3.87-3.8.81,4.47,20.67-27.12,5.85.87,4-3.8.82,2.91,13.49,28.5-6.16a24.63,24.63,0,0,1-9.76,17,33.43,33.43,0,0,1-14.38,6.38l-2.54.55.67,3.06a.79.79,0,0,1-.71,1.11l-3,.65,2.87,13.32q7.41-1.61,7.76-1.75a47.43,47.43,0,0,0,22.37-16.11q.59-.76,9-13.17a3.3,3.3,0,0,1-.28-.39,5.43,5.43,0,0,1,.66.68c4.56,3.78,7,5.8,7.37,6.11a43.65,43.65,0,0,0,16.43,6.85,41.55,41.55,0,0,0,17.61.43c1.55-.3,2.13-1.24,1.79-2.86l-.32-1.5,3.06-.67,0-.68A1,1,0,0,0,678.45,500.48Zm-45.91-17.31q-3.87,13.83-13,22.29-10.71,9.95-22.44,12l-2.07-9.58q15.91-2.81,24.64-17.05a35.5,35.5,0,0,0,5-15.72l-29.29,6.32-2.08-9.64,30.73-6.63-5.31-24.58,9.64-2.08L633.73,463l29-6.25,2.09,9.69-28.07,6.06q4,8.46,13.49,14a34.88,34.88,0,0,0,24,4.33l2.09,9.7Q649.72,503.75,632.54,483.17Z"/><path class="cls-3" d="M676.33,500.52q-26.61,3.23-43.79-17.35-3.87,13.83-13,22.29-10.71,9.95-22.44,12l-2.07-9.58q15.91-2.81,24.64-17.05a35.5,35.5,0,0,0,5-15.72l-29.29,6.32-2.08-9.64,30.73-6.63-5.31-24.58,9.64-2.08L633.73,463l29-6.25,2.09,9.69-28.07,6.06q4,8.46,13.49,14a34.88,34.88,0,0,0,24,4.33Z"/><path class="cls-3" d="M222,327.66c-3.31,6.89-5.43,11.33-6.4,13.31l-9.46-4.26a22.85,22.85,0,0,0-27.29,8.49c-.06,0-.57.7-1.53,2-2.1-1.46-6.16-4.3-12.14-8.5a38.81,38.81,0,0,1,21.9-16.91Q203.3,316.83,222,327.66Z"/><path class="cls-3" d="M191.72,460.32l-5.12,10L179.44,467a17.48,17.48,0,0,0-21,6s-.45.52-1.2,1.48q-2.37-1.77-9.13-6.72a29.63,29.63,0,0,1,17-12.53Q177.61,451.72,191.72,460.32Z"/><path class="cls-3" d="M197.88,490.86A41,41,0,0,1,188.23,509q-8.78,9.5-20.24,11.19a26.52,26.52,0,0,1-8.79-.14L140,516.59l2.11-11.71,1.21.22,17.65,3.17q8.65,1.68,17.23-3.53c.19-.14,2.36-1.56,6.54-4.28l-40.52-7.29,2.08-11.59Z"/><path class="cls-3" d="M281.4,505.7l4.51-41.18L221,457.41l-.16,1.46q-4.08,37.25-6.12,55.81a10.65,10.65,0,0,1-.52,3,14.85,14.85,0,0,1-2.62.82l-.39.15c.19.84.59,2.4,1.16,4.65.49,2,.88,3.53,1.16,4.72,2.16-.43,6.54-1.35,13.19-2.77l13.2-2.71q-1.85-7-2.44-9.38c-2.54.58-6.17,1.41-10.88,2.46l1.74-15.74Zm-49.55-37.26L275,473.19l-.63,5.76-43.2-4.75Zm-1.73,15.76,43.2,4.73-.63,5.7-43.2-4.74Z"/><polygon class="cls-3" points="323.34 480.43 320.96 527.88 328.29 528.25 327.69 540.07 301.34 538.74 301.94 526.98 310.24 527.41 312.63 479.88 304.32 479.46 304.91 467.71 331.26 469.03 330.67 480.79 323.34 480.43"/><path class="cls-3" d="M412.26,519.84q-4.72,6.92-4.85,7-7.43,10.75-11,15.82a1.33,1.33,0,0,1-1.18.68q-12.56.06-39.86.14s-.23,0-.56,0l-.27-70.58,13.69,0,.21,58.73h1.06q13.94-.06,17.19,0a2,2,0,0,0,1.6-.81q2.26-3.15,11.2-15.1s.29-.42.88-1.22c1.44.66,3.39,1.55,5.86,2.7C409.19,518.49,411.18,519.38,412.26,519.84Z"/><path class="cls-3" d="M491.25,515c-2.84,4.81-4.31,7.25-4.38,7.34q-6.69,11.22-9.91,16.5a1.31,1.31,0,0,1-1.11.76l-39.79,2.79-.56,0-4.91-70.4,13.66-1,4.08,58.59,1.05-.08c9.26-.63,15-1,17.15-1.13a1.91,1.91,0,0,0,1.55-.9q2.06-3.3,10.17-15.81l.8-1.28,6,2.3C488.09,513.8,490.14,514.56,491.25,515Z"/><path class="cls-3" d="M539.38,521.69l3.63,8.45c-2,.36-6.43,1.15-13.35,2.35l-1.27-9.23-11.66,1.6-1.59-11.47c1.22-.3,5-1.11,11.49-2.46l-1.7-12.39-11.75,1.06-1.1-8.13L523.61,489l-1.48-10.75-11.6,1.6-1.4-10.19,5.68-1.16c2.59-.56,4.52-1,5.81-1.24l-1.73-12.57,9.65-1.34,1.55,11.24q6.1-1.16,17.64-3.29c8-1.52,13.82-2.61,17.6-3.29l1.92,14-34.81,4.78,1.26,9.16q4.26-.76,15.35-2.8,9.66-1.69,15.3-2.72l2,14.22-30.48,3.2,1.45,10.51q15.19-3,34-6.62L573.44,517Z"/><polygon class="cls-3" points="618.6 398.35 584.69 404.92 581.77 389.79 592.46 387.71 580.6 326.56 569.91 328.64 566.98 313.51 600.88 306.94 603.81 322.06 594.38 323.89 606.22 384.96 615.66 383.14 618.6 398.35"/><path class="cls-3" d="M556.52,393l-8.11.92c-5.17.59-8.46-1.36-9.83-5.86q-.29-.94-2.6-13.59l19-2.17c-3.11-4.94-4.89-7.85-5.37-8.72a2,2,0,0,0-2.05-.9l-10.75,1.22-1.6.18-.88-7.69,18.76-2.14c-3.29-6.11-5.39-10-6.27-11.55a1.6,1.6,0,0,0-1.61-.63l-10.82,1.24-1.68.19-2.92-25.66-15.56,1.77,2.9,25.5-28.3,3.21-2.89-25.48-15.4,1.74,2.93,25.74L458.15,352l1.47,12.92,15.23-1.73.87,7.69-15.3,1.74L461.59,383l15.31-1.75q1.05,9.22,1,9.79a11,11,0,0,1-3.56,8,13.67,13.67,0,0,1-8.2,4.27l-4.81.54,1.72,15.16q14.19-1.62,15-1.79a20.78,20.78,0,0,0,11.43-7.38,19.93,19.93,0,0,0,4.73-12.65q.07-.83-1.11-11.89l-.65-5.69,28.22-3.21q1.43,12.51,1.63,13.7a43.61,43.61,0,0,0,2.14,8.77,18,18,0,0,0,7.2,9,16.9,16.9,0,0,0,11.87,2.31c.43-.06,4.79-.55,13.08-1.5l1.68-.18ZM491.35,369l-.86-7.63,28-3.18.87,7.61Z"/><path class="cls-3" d="M421.67,336.51q-3.06,11.06-4,14.21l-10.07-2.52a22.88,22.88,0,0,0-25.37,13.13c-.06.05-.44.79-1.16,2.2q-3.53-1.62-13.45-6.25a38.83,38.83,0,0,1,18.6-20.49Q401.36,329.13,421.67,336.51Z"/><path class="cls-3" d="M437.49,374.11a53.65,53.65,0,0,1-7.69,25.76q-8.81,14.44-23.06,19.6a35.08,35.08,0,0,1-11.34,2.11l-25.57.54-.33-15.56,1.61,0,23.47-.51q11.55-.08,21.2-9,.32-.33,7.27-7.18L369.17,391l-.32-15.41Z"/><path class="cls-3" d="M231,367.45a53.57,53.57,0,0,1-12.07,24q-11.21,12.72-26.13,15.28a34.3,34.3,0,0,1-11.53.09L156,402.88l2.39-15.38,1.59.25,23.21,3.61q11.37,1.93,22.44-5.16c.24-.18,3-2.12,8.41-5.79l-53.26-8.3,2.37-15.23Z"/></g></g></svg>
