<svg xmlns="http://www.w3.org/2000/svg" viewBox="0 0 803.78 827.85"><defs><style>.cls-1{fill:#141414;}.cls-2{fill:#d6cb00;}</style></defs><g id="Lag_2" data-name="Lag 2"><g id="Lag_1-2" data-name="Lag 1"><rect class="cls-1" width="803.78" height="827.85"/><path class="cls-2" d="M248.27,321.58l1.61,9.71-1.09.69-3.59-4.12L243.53,332l-1.41-1.82,3.69,13.72a6.78,6.78,0,0,1-4.25-4.18,20.29,20.29,0,0,0-2.79-5.2c-1.57,1.31-2.6,1.85-3.12,1.62s-1.14-1.61-1.9-4.16q-2.31-8.79-4.71-17.15t-4.15-17.2c-.5-2.58-1.07-5.11-1.69-7.58s-1.31-4.9-2.06-7.26a4.73,4.73,0,0,1-.3-2.23c.09-.77.18-1.62.25-2.58a6.14,6.14,0,0,0,1.28,1.27,3.54,3.54,0,0,1,1.1,1.29,7,7,0,0,1,.86,2.17c.36-.42.74-.89,1.16-1.41a12.63,12.63,0,0,0,1.13-1.68q2.28-3.36,2.85-3.15c.39.15,1.14,1.47,2.27,4l0,.57.2.26a3.46,3.46,0,0,1,3,1.36,11.14,11.14,0,0,1,1.47,3.08,23.82,23.82,0,0,1,.85,3.86,11.25,11.25,0,0,0,1.13,3.69,10.88,10.88,0,0,0,1.83,2.91,2.44,2.44,0,0,0,2.46.28q7.81-1.73,15.34-3.43t15.34-3.15q11-1.81,21.92-3.47T317.2,283c1.24-.33,2.41-.65,3.52-1l3.52-1q5-.86,5.56-9.11A1.22,1.22,0,0,1,330,271a4,4,0,0,0,.6-1.2l3.35,7,1.11-.41c-.06-1.31-.19-2.62-.38-3.92a11.88,11.88,0,0,1,0-3.67,13.1,13.1,0,0,1,1.13-3.81,28.94,28.94,0,0,0,1.5-3.84,26.81,26.81,0,0,0,2,2.32,8.53,8.53,0,0,1,1.62,2.36,57.9,57.9,0,0,1,3.89,10q2.16,5.7,4.14,11.41l4,11.43a4.33,4.33,0,0,1-1.07,4.93,14.56,14.56,0,0,0-3.39,3.77,7.87,7.87,0,0,0-.91,4.35,20.83,20.83,0,0,0,1.19,4.95,2.08,2.08,0,0,1,.24,1.11l.08,1.4,0,3.12.07,1.4-1.51-2a7.65,7.65,0,0,1-1.14-2.27q-2.34-5.38-4.38-10.53a82.15,82.15,0,0,0-4.73-9.93l4.6,16.73-1.27,1L335.12,303a108.2,108.2,0,0,1-21.51,7.81q-10.86,2.64-21.78,4.3t-21.84,3Q259.07,319.51,248.27,321.58Z"/><path class="cls-2" d="M419.62,530l-87.14,3.37,9.23-138.28L339.39,402l-.71-34.31-2.33-.19-5.17,63.39-.87-.07q.53-13.71,1.35-27.26T333,376.26a28.89,28.89,0,0,0-4.79,8.54,47.7,47.7,0,0,0-2.2,9q-.67,4.64-1.06,9.28a74.82,74.82,0,0,1-1.33,9.26c-.05-4.3.06-8.53.3-12.71s.43-8.31.57-12.39a9.15,9.15,0,0,0-.93-3,19.42,19.42,0,0,1-1.21-3,15.27,15.27,0,0,1-1.65,2.21,3.93,3.93,0,0,0-1.06,2.25q-1.26,8.39-2.21,16.36t-1.75,14.34a57.22,57.22,0,0,1,.33-9.48c.37-3.38.71-6.87,1-10.46s.49-7.23.6-10.92a44.48,44.48,0,0,0-1.14-11.22,4.2,4.2,0,0,0-1.69,2.79,127.19,127.19,0,0,0-2.1,15.05q-2,21.19-3.74,42.28l-3.43,42q-.79,13.41-1.57,26.51t-1.58,26.51a18,18,0,0,1-.75,5.65q-.8,2.42-4.9,2.67l-1.31,1.65a5.17,5.17,0,0,0,1.58.42,2.84,2.84,0,0,1,1.28.4l3.2.26a31.88,31.88,0,0,1-3.44,2.64l2.48,2a34.47,34.47,0,0,0-7.8,2.29c-1.22.68-1.66,1.23-1.3,1.65a4.35,4.35,0,0,0,2.34,1.8,30.83,30.83,0,0,1,3,1.27,10,10,0,0,1,5.39,7.46q.63,4.74,1.71,9.51c0,.2.65.45,2,.75.1-1.17.14-2.33.14-3.5a6.8,6.8,0,0,1,.7-3.16,6.45,6.45,0,0,1,1-2,17.56,17.56,0,0,0,1.33-1.94c.36.42.53.73.51.92l1.34,1.57c.17.21.26.37.25.46a.87.87,0,0,0,.26.46,2.11,2.11,0,0,0,.07.89c.08.2.28.71.61,1.51q2.4-.69,4.93-1.21a4.14,4.14,0,0,0,3.26-2.22,4.83,4.83,0,0,1,2.84-2.55c1-.21,2-.37,3-.49a147.84,147.84,0,0,1,20.27-.84h0c11.2,0,43,0,98.34-.15Zm-87.69-40.14c-.65,3.16-1.28,4.92-1.89,5.26l3.6-44.2a97.68,97.68,0,0,1,.52,13.36q-.17,7.45-.71,14.14A98.65,98.65,0,0,1,331.93,489.89Z"/><path class="cls-2" d="M473.53,407q-.51-5.07-.89-10.46t-.49-10.94a44,44,0,0,1,1.24-11.2,4.2,4.2,0,0,1,1.66,2.81,126.21,126.21,0,0,1,2,15.06q1.82,21.22,3.33,42.32l3,42.05q.67,13.39,1.32,26.52T486,529.66a18.32,18.32,0,0,0,.7,5.65c.51,1.63,2.13,2.53,4.88,2.72l1.29,1.67a5.17,5.17,0,0,1-1.58.4,3,3,0,0,0-1.29.39l-3.2.23a33.08,33.08,0,0,0,3.41,2.68l-2.5,1.93a33.53,33.53,0,0,1,7.78,2.37c1.22.69,1.65,1.24,1.29,1.66a4.45,4.45,0,0,1-2.36,1.78,27.72,27.72,0,0,0-3,1.24q-4.79,2.68-5.47,7.41c-.45,3.15-1.06,6.31-1.8,9.48,0,.2-.65.45-2,.73-.08-1.16-.12-2.33-.11-3.5a6.88,6.88,0,0,0-.66-3.17,6.44,6.44,0,0,0-1-2,20.78,20.78,0,0,1-1.31-2c-.36.42-.53.73-.52.92l-1.35,1.56c-.18.21-.27.36-.26.45s-.08.26-.26.46a2.08,2.08,0,0,1-.08.89l-.63,1.5c-1.59-.47-3.23-.88-4.91-1.25a4.12,4.12,0,0,1-3.23-2.26,5,5,0,0,0-2.82-2.58c-1-.22-2-.39-3-.51q-10.29-.72-20.26-1t-20.25-1a5.24,5.24,0,0,1-2.15-1.46q-1.26-1.21-1-1.53a44.59,44.59,0,0,1,5.05-7.09c-.94.46-1.59.31-1.94-.45s-.18-1.93.48-3.54l-6.78-.69,5.1-2.41c-.44-.74-.84-1.5-1.19-2.25a24.45,24.45,0,0,0-1.18-2.26,21.22,21.22,0,0,0-1.44-1.65c-.52-.55-1-1.1-1.43-1.65a14.63,14.63,0,0,0,2.13-.89,6.29,6.29,0,0,1,2.44-.61,21.49,21.49,0,0,1,2.63,0c.78,0,1.67.13,2.65.25l30.93,3L448,394.92l2.25,6.86,1.05-34.3,2.33-.16,4.55,63.43.87-.06q-.39-13.72-1.08-27.27t-1.07-27.27a29.08,29.08,0,0,1,4.7,8.58,48.85,48.85,0,0,1,2.12,9.06q.61,4.65,1,9.3a75,75,0,0,0,1.24,9.27c.09-4.3,0-8.53-.18-12.72s-.34-8.31-.45-12.39a9.51,9.51,0,0,1,1-3,20.21,20.21,0,0,0,1.25-3,14.54,14.54,0,0,0,1.62,2.22,4,4,0,0,1,1,2.27q1.18,8.4,2.05,16.38t1.61,14.36A56.87,56.87,0,0,0,473.53,407Zm-18.06,43.85a99.29,99.29,0,0,0-.65,13.36q.09,7.44.58,14.14a99.23,99.23,0,0,0,1.4,11.45q.93,4.75,1.84,5.28Z"/><path class="cls-2" d="M334.39,367.1c-4.62.9-9.25,1.74-13.91,2.46q-10.91,1.65-21.8,3.6T277,378a108.9,108.9,0,0,0-21.42,8.37l-5.73-13.64-1.26,1,4.79,16.61a82.7,82.7,0,0,1-4.84-9.81q-2.1-5.08-4.5-10.41a7.55,7.55,0,0,0-1.17-2.25L241.3,366l.09,1.41v3.11l.09,1.4a2.18,2.18,0,0,0,.25,1.1A20.21,20.21,0,0,1,243,378a7.93,7.93,0,0,1-.86,4.36,15.18,15.18,0,0,1-3.34,3.87,4.36,4.36,0,0,0-1,5l4.08,11.32q2,5.65,4.28,11.3a58,58,0,0,0,4,9.92,8.8,8.8,0,0,0,1.65,2.32,27.43,27.43,0,0,1,2,2.26,28.62,28.62,0,0,1,1.45-3.88,13.24,13.24,0,0,0,1.08-3.83,11.68,11.68,0,0,0,0-3.68c-.2-1.3-.35-2.6-.43-3.91l1.11-.43,3.43,6.88a4.47,4.47,0,0,1,.59-1.21,1.23,1.23,0,0,0,.22-.88q.44-8.28,5.46-9.26l3.51-1.05c1.11-.35,2.28-.7,3.51-1.06q11-2.1,21.87-4t21.87-4q7.8-1.67,15.31-3.56l4-1Q335.37,380.24,334.39,367.1Z"/><path class="cls-2" d="M530.16,319.69q-11.4-2.18-22.77-4.63t-22.68-5.9a120.39,120.39,0,0,1-22.27-9.38l-6.31,13.37-1.29-1.09,5.38-16.37a78.71,78.71,0,0,0-5.29,9.57q-2.31,5-4.94,10.2a7.13,7.13,0,0,1-1.28,2.18l-1.65,1.84.12-1.4.07-3.11.12-1.4a2,2,0,0,1,.3-1.08,19.41,19.41,0,0,0,1.41-4.87,7.54,7.54,0,0,0-.81-4.4,15.64,15.64,0,0,0-3.41-4,4.25,4.25,0,0,1-.95-5l4.53-11.12q2.26-5.56,4.73-11.09a53.88,53.88,0,0,1,4.41-9.73,8.27,8.27,0,0,1,1.78-2.24,24.65,24.65,0,0,0,2.17-2.17,28.89,28.89,0,0,0,1.44,4,13,13,0,0,1,1,3.88,11.42,11.42,0,0,1-.12,3.67,36.2,36.2,0,0,0-.54,3.88l1.15.49,3.75-6.72a4.19,4.19,0,0,0,.59,1.24,1.25,1.25,0,0,1,.22.9c.18,5.52,2,8.7,5.51,9.51l3.66,1.22c1.16.4,2.37.81,3.66,1.22q11.46,2.63,22.84,5.08t22.84,5.07q8.14,2,16,4.28t16,4.55a2.65,2.65,0,0,0,2.59-.1,10.61,10.61,0,0,0,2-2.77,10.45,10.45,0,0,0,1.3-3.6,22.36,22.36,0,0,1,1-3.8,10.83,10.83,0,0,1,1.64-3,3.59,3.59,0,0,1,3.17-1.14l.22-.24,0-.56q1.9-3.64,2.51-3.82t2.88,3.36a12.65,12.65,0,0,0,1.14,1.76c.41.55.8,1.05,1.16,1.49a6.67,6.67,0,0,1,1-2.1,3.56,3.56,0,0,1,1.2-1.21,5.93,5.93,0,0,0,1.38-1.17c.05,1,.11,1.82.18,2.59a4.36,4.36,0,0,1-.39,2.2q-1.3,3.47-2.4,7.1t-2,7.46q-2.14,8.71-4.93,16.87t-5.52,16.78q-1.32,3.75-2.13,4c-.55.19-1.62-.43-3.21-1.85a18.85,18.85,0,0,0-3.11,5,6.59,6.59,0,0,1-4.6,3.86L559,333.79l-1.54,1.72-1.61-4.27-3.9,3.85-1.12-.77,2-9.58Q541.58,321.88,530.16,319.69Z"/><path class="cls-2" d="M451.63,367.1c4.85.9,9.71,1.74,14.6,2.46q11.44,1.65,22.87,3.6T511.89,378a117.35,117.35,0,0,1,22.47,8.37l6-13.64,1.32,1-5,16.61a79.87,79.87,0,0,0,5.08-9.81q2.21-5.08,4.72-10.41a7.61,7.61,0,0,1,1.23-2.25c.51-.59,1-1.23,1.61-1.91l-.09,1.41v3.11l-.09,1.4a2,2,0,0,1-.27,1.1,19.47,19.47,0,0,0-1.3,4.93,7.52,7.52,0,0,0,.9,4.36,15.23,15.23,0,0,0,3.5,3.87,4.21,4.21,0,0,1,1.07,5l-4.29,11.32q-2.15,5.65-4.48,11.3a56.29,56.29,0,0,1-4.2,9.92,8.63,8.63,0,0,1-1.73,2.32,27.72,27.72,0,0,0-2.12,2.26,27.48,27.48,0,0,0-1.53-3.88,13,13,0,0,1-1.13-3.83,11.39,11.39,0,0,1,0-3.68A36.85,36.85,0,0,0,534,413l-1.16-.43-3.6,6.88a4.37,4.37,0,0,0-.61-1.21,1.14,1.14,0,0,1-.24-.88q-.45-8.28-5.72-9.26L519,407c-1.16-.35-2.39-.7-3.68-1.06q-11.52-2.1-22.94-4t-22.95-4q-8.18-1.67-16.06-3.56l-4.19-1Q450.62,380.24,451.63,367.1Z"/><path class="cls-2" d="M451.88,286a53.1,53.1,0,0,1-12.14,22.53q-10.94,11.82-28.43,18.87a59.11,59.11,0,0,1-8.44,2.51l-8.68,1.92c-2,.17-4.07.4-6.07.71a45.69,45.69,0,0,1-6.15.5q-8.7.35-14.49-3.92a60.73,60.73,0,0,1-10.8-10.3,21,21,0,0,1-4.9-10.61,21.66,21.66,0,0,1,2.15-11.68,32.18,32.18,0,0,0,2.85-8.65c.24-1.32.46-2.67.68-4a58.93,58.93,0,0,1-16.83-13.7,12.24,12.24,0,0,1-1-1.42c-.2.66-.44,1.3-.61,2q-1.2,5.21-2.07,10.4a89.86,89.86,0,0,0-1.13,10.5,7.21,7.21,0,0,0-.19,1.32.8.8,0,0,1-.6.79c-1.35.82-2,1.69-1.84,2.62s.23,1.91.31,2.94a48.08,48.08,0,0,0,2.92,9.54q2,4.68,3.52,9.31a2.87,2.87,0,0,0,.74,1.08c.35.32.06.65-.86,1-2.33,1-3.21,2.09-2.66,3.16a7.2,7.2,0,0,0,2.62,2.74q6.13,4.26,12,9a45.87,45.87,0,0,0,13.19,7.37c-1.91.11-3.72.23-5.41.34a12.08,12.08,0,0,1-5.2-.87c-1.41-.53-2.5,0-3.29,1.47-.46.78-.48,1.35,0,1.71a6.54,6.54,0,0,0,1.48.91c2.63,1,5.25,1.91,7.85,2.81a35.69,35.69,0,0,0,8.15,1.8,84.72,84.72,0,0,0,13.41.14l13.24-.92c2.23-.08,4.54-.27,6.91-.57a11,11,0,0,0,6-2.48,29.4,29.4,0,0,1,8.52-5,74.65,74.65,0,0,0,8.89-4c3.64-2,7.32-3.89,11.07-5.76a33.49,33.49,0,0,0,9.8-7.32q3.11-3.21,6.34-6t6.6-5.89a47.26,47.26,0,0,0,11-13,36,36,0,0,0,4.53-16.2q0-2.13.06-4.2A108.67,108.67,0,0,1,451.88,286Zm-110.59,9.42c.29,1.56.52,3.08.71,4.6s.46,3.11.79,4.79A28.15,28.15,0,0,1,341.29,295.46Zm5,22.23a12.51,12.51,0,0,1-2.38-5.1c1.27,1.33,2.52,2.67,3.78,4a10.89,10.89,0,0,1,2.56,5.6C348.75,320.64,347.44,319.14,346.28,317.69Zm1.3-22.34c-.13-1.16-.27-2.35-.44-3.57a12.93,12.93,0,0,1,0-3.52,9.35,9.35,0,0,1,1.25-3.3,9.1,9.1,0,0,1,3.4-3,52.92,52.92,0,0,1-1.53,7A31.5,31.5,0,0,1,347.58,295.35Zm60.22,42.59a36.18,36.18,0,0,1-12.1,1.51q6.09-1.84,11.55-3.57c3.65-1.15,7.23-2.23,10.77-3.27A33.32,33.32,0,0,1,407.8,337.94Zm44-27.79a40.14,40.14,0,0,1-9.8,7.32,45.18,45.18,0,0,1,7.2-9.4q4.2-4.19,8.18-8.63A21.83,21.83,0,0,1,451.76,310.15Z"/></g></g></svg>
