<svg xmlns="http://www.w3.org/2000/svg" xmlns:xlink="http://www.w3.org/1999/xlink" viewBox="0 0 386 386"><defs><style>.cls-1{fill:#d6cb00;}.cls-2{fill:url(#Ikke-navngivet_forløb_23);}.cls-3{fill:url(#Ikke-navngivet_forløb_21);}</style><radialGradient id="Ikke-navngivet_forløb_23" cx="232.75" cy="151.87" r="307.58" gradientTransform="translate(519.46 129.39) rotate(139.54) scale(1 1.11)" gradientUnits="userSpaceOnUse"><stop offset="0.47" stop-color="#d6cb00"/><stop offset="1" stop-opacity="0.8"/></radialGradient><radialGradient id="Ikke-navngivet_forløb_21" cx="292.95" cy="-12.96" r="79.4" gradientTransform="translate(156.79 -157.99) rotate(79.67) scale(1 0.85)" gradientUnits="userSpaceOnUse"><stop offset="0" stop-color="#fff"/><stop offset="0.17" stop-color="#f4f1bc"/><stop offset="0.33" stop-color="#ebe683"/><stop offset="0.49" stop-color="#e4dc54"/><stop offset="0.64" stop-color="#ded530"/><stop offset="0.78" stop-color="#d9cf15"/><stop offset="0.9" stop-color="#d7cc06"/><stop offset="1" stop-color="#d6cb00"/></radialGradient></defs><g id="Lag_2" data-name="Lag 2"><g id="Lag_1-2" data-name="Lag 1"><path class="cls-1" d="M386,193a194.36,194.36,0,0,1-2,27.68,190.32,190.32,0,0,1-6.6,29.36A193.09,193.09,0,0,1,193,386C86.41,386,0,299.59,0,193A192.84,192.84,0,0,1,90,29.79,192.1,192.1,0,0,1,193,0C299.59,0,386,86.41,386,193Z"/><path class="cls-2" d="M386,193a194.36,194.36,0,0,1-2,27.68,190.32,190.32,0,0,1-6.6,29.36A193.09,193.09,0,0,1,193,386C86.41,386,0,299.59,0,193A192.84,192.84,0,0,1,90,29.79,192.1,192.1,0,0,1,193,0C299.59,0,386,86.41,386,193Z"/><ellipse class="cls-3" cx="220.13" cy="128.24" rx="69.14" ry="82.05" transform="translate(-8.3 241.05) rotate(-56.51)"/></g></g></svg>
